<?xml version="1.0" encoding="UTF-8"?>
<!DOCTYPE svg PUBLIC "-//W3C//DTD SVG 1.1//EN" "http://www.w3.org/Graphics/SVG/1.1/DTD/svg11.dtd">
<svg xmlns="http://www.w3.org/2000/svg" version="1.1" width="1024px" height="1024px" style="shape-rendering:geometricPrecision; text-rendering:geometricPrecision; image-rendering:optimizeQuality; fill-rule:evenodd; clip-rule:evenodd" xmlns:xlink="http://www.w3.org/1999/xlink">
<g><path fill="#febc3e" fill-opacity="0.996" stroke="#febc3e" stroke-width="0.5" stroke-opacity="0.996" d="M 675.02,377.01 c 0.31,-0.1 0.63,-0.19 0.94,-0.28 c 0.33,-0.09 0.65,-0.19 0.98,-0.28 c 1.42,1.05 3,1.71 4.73,1.98 c -1.54,2.11 -1.89,2.09 -0.02,4.07 c -2.11,0.78 -2.56,0.25 -1.92,2.76 c -0.44,0.17 -0.9,0.33 -1.38,0.48 c -1.58,1.37 -1.84,2.97 -0.77,4.8 c -0.97,0.2 -1.96,0.38 -2.96,0.54 c -1.11,1.1 1.37,0.65 1.17,2.25 c -0.75,0.03 -1.5,0.23 -2.25,0.6 c -1.35,1.08 -1.63,2.4 -0.85,3.95 c 3.97,-1.84 7.99,-3.64 12.05,-5.39 c 0.62,-0.18 1.06,0.03 1.33,0.62 c -12.22,6.23 -24.26,12.81 -36.12,19.72 c 0.72,-2.13 -3.53,0.33 -3.96,0.61 c -4.68,3.05 -9.39,6.04 -14.14,8.97 c -0.55,0.62 -0.77,1.35 -0.66,2.19 c -0.73,-0.51 -1.5,-0.58 -2.29,-0.22 c -4.01,2.67 -8.03,5.34 -12.06,7.98 c -0.69,0.6 -0.81,1.31 -0.36,2.14 c -1.16,0.82 -2.33,1.63 -3.51,2.43 c 0.36,-1.49 -1.39,-1.2 -2.06,-0.5 c -6.89,5.03 -13.74,10.14 -20.54,15.32 c -1.68,1.29 -3.45,2.42 -5.3,3.41 c -3.65,0.28 -4.84,1.23 -8.87,-0.68 c -1.23,-0.79 -2.5,-1.46 -3.83,-2.03 c 0.52,-1.51 -2.03,-4.84 -2.85,-6.04 c -0.82,0.16 -1.53,0.52 -2.13,1.09 c 1.5,0.84 2.28,2.47 0.13,3.21 c -0.82,-1 -0.58,-1.75 -2.04,-1.19 c -2.21,-0.84 -4.59,-0.22 -1.96,-3.14 c 0.76,0.42 0.62,1.68 1.74,1.53 c 0.13,-0.63 0.23,-1.28 0.3,-1.95 c 0.45,-0.44 0.81,-0.94 1.1,-1.49 c -1.74,-0.07 -3.47,-0.37 -5.2,-0.89 c -3.26,-1.16 -4.01,-2.89 -6.1,-5.15 c 0.49,-0.93 0.88,-1.89 1.2,-2.88 c -1.51,-1.4 -1.36,-0.76 0.13,-2.16 c -0.19,-0.55 -0.57,-0.88 -1.16,-0.99 c -0.76,0.36 -1.51,0.4 -2.25,0.13 c 0.39,-2.22 7.21,-3.36 6.49,-6.97 c 0.81,-0.46 1.61,-0.92 2.42,-1.38 c 0.33,-0.19 0.66,-0.38 0.99,-0.57 c 4.61,-2.55 9.26,-5.04 13.93,-7.46 c 0.44,-0.24 0.88,-0.48 1.32,-0.71 c 0.21,-0.11 0.42,-0.23 0.63,-0.34 c 0.44,-0.23 0.87,-0.46 1.3,-0.69 c 0.23,-0.13 0.46,-0.25 0.69,-0.37 c 0.38,-0.21 0.76,-0.41 1.15,-0.61 c 2.27,-1.16 4.57,-2.29 6.88,-3.39 c 0.38,-0.18 0.76,-0.36 1.14,-0.54 c 0.96,-0.47 1.92,-0.93 2.88,-1.4 c 0.44,-0.21 0.88,-0.42 1.32,-0.63 c 0.23,-0.11 0.45,-0.21 0.68,-0.32 c 0.29,-0.13 0.57,-0.27 0.86,-0.4 c 4.99,-2.33 10.01,-4.58 15.07,-6.73 c 0.39,-0.17 0.78,-0.33 1.17,-0.49 c 1.96,-0.82 3.92,-1.64 5.87,-2.47 c 0.38,-0.16 0.76,-0.32 1.14,-0.48 c 2.94,-1.19 5.88,-2.39 8.82,-3.6 c 0.4,-0.13 0.79,-0.3 1.16,-0.51 c 4.94,-1.84 9.88,-3.67 14.83,-5.47 c 0.39,-0.14 0.78,-0.28 1.17,-0.41 c 4.58,-1.64 9.19,-3.19 13.83,-4.63 c 0.41,-0.09 0.82,-0.2 1.22,-0.33 c 4.9,-1.62 9.83,-3.16 14.78,-4.62 Z"/></g>
<g><path fill="#fea91f" stroke="#fea91f" stroke-width="0.5" d="M 387.17,461.92 c 0.22,0.75 0.69,1.29 1.42,1.62 c -0.48,0.37 -0.94,0.76 -1.37,1.17 c 0.22,0.94 0.29,1.88 0.2,2.84 c 0.84,0.37 1.7,0.68 2.61,0.93 c 0.36,0.24 0.58,0.57 0.67,0.99 c -0.77,0.38 -1.55,0.74 -2.36,1.06 c 1.33,1.04 3.79,-0.03 4.31,1.93 c -0.57,0.65 -2.52,1.37 -0.99,2.34 c 0.94,0.32 1.91,0.59 2.88,0.79 c 1.17,-0.25 3.16,-1.23 4.11,-0.08 c -0.87,0.3 -1.7,0.67 -2.49,1.13 c -0.51,1 -1.1,1.95 -1.77,2.84 c 0.91,4.21 4.29,0.97 0.82,7.17 c -0.96,2.3 1.77,2.57 3.11,3.5 c 0.05,0.71 0,1.45 -0.15,2.22 c 1.37,1.48 3.04,-1.64 4.43,0.07 c -1.25,2.16 -2.65,4.19 -4.22,6.11 c 0.72,0.44 1.42,0.92 2.1,1.43 c 0.07,0.51 0.04,1.01 -0.09,1.51 c 0.45,0.63 0.84,1.3 1.16,2 c -0.28,0.57 -0.4,1.16 -0.36,1.78 c 1.55,0.62 3.02,1.38 4.43,2.28 c -3.66,1.67 -2.34,0.22 -0.77,3.14 c -0.11,1.07 -0.63,1.24 -1.57,0.5 c -1.12,0.08 -1.22,0.49 -0.33,1.26 c 0.59,0.31 1.15,0.66 1.67,1.07 c -0.82,0.24 -1.59,0.57 -2.31,0.99 c 3.68,1.29 2.23,0.74 -0.04,2.15 c -0.06,0.63 0.06,1.24 0.36,1.81 c -1.11,0.34 -2.21,0.68 -3.3,1.03 c 1.24,0.62 2.3,1.46 3.19,2.53 c 0.43,1.02 -1.14,1.96 -0.05,2.64 c 1.15,-0.56 2.44,-2.43 3.22,-0.18 c -0.77,1.02 -1.51,2.07 -2.22,3.14 c -1.27,-1.68 -0.62,-1.39 -2,-0.05 c -0.59,-0.18 -1.19,-0.29 -1.8,-0.33 c -1.52,0.52 -3.03,1.01 -4.53,1.45 c -0.23,1.19 1.01,0.94 1.48,1.81 c -0.36,1.69 -0.96,3.29 -1.8,4.79 c -2.58,2 -0.33,-1.94 -2.06,-1.11 c -0.5,0.77 -0.9,1.58 -1.2,2.44 c -0.44,-0.11 -0.88,-0.23 -1.31,-0.38 c -2.34,-0.02 0.68,1.39 -0.71,2.36 c -1.53,-1.72 -3.04,-3.47 -4.54,-5.26 c -0.7,-0.27 -1.14,-0.02 -1.33,0.72 c -0.08,-0.12 -0.17,-0.24 -0.26,-0.36 c -5.86,-8.11 -11.47,-16.4 -16.81,-24.87 c 0.41,-0.39 0.86,-0.46 1.34,-0.2 c 2.77,3.88 5.48,7.8 8.12,11.76 c 0.63,0.75 4.3,-2.41 3.67,-3.65 c -2.82,-2.18 -0.22,-1.26 -0.89,-4 c -0.83,-0.59 -1.76,-1.01 -2.78,-1.25 c -1.31,-1.23 -1.13,-2.23 0.55,-2.99 c -0.39,-1.03 -0.8,-2.06 -1.24,-3.08 c 0.53,-0.89 0.98,-1.8 1.36,-2.75 c -0.02,-1.39 -0.14,-2.78 -0.35,-4.18 c 0.77,-0.43 1.25,-1.06 1.46,-1.88 c -0.86,-1.38 -2.03,-2.42 -3.5,-3.12 c 0.66,-1.23 1.14,-2.51 1.46,-3.83 c -0.16,-0.15 -0.32,-0.31 -0.48,-0.46 c -1.39,-0.08 -2.73,-0.32 -4.03,-0.73 c 1.47,-0.27 2.91,-0.6 4.32,-0.99 c -1.6,-2.23 -1.57,-1.69 0.01,-3.93 c -0.85,-0.58 -1.61,-1.25 -2.29,-2.01 c 0.37,-0.85 0.94,-1.54 1.72,-2.06 c 0.63,0.03 1.24,-0.04 1.84,-0.21 c 0.02,-0.44 -0.16,-0.78 -0.54,-1.02 c -1.47,-0.55 -2.51,-1.54 -3.1,-2.98 c -0.08,-2.15 1.92,0.62 2.52,-1.86 c -0.2,-2.17 -1.09,-1.41 0.79,-2.91 c -0.87,-0.53 -1.6,-1.2 -2.2,-2.01 c 2.72,-1.73 0.57,-1.66 1.25,-3.98 c -0.19,-0.57 -0.46,-1.1 -0.8,-1.6 c 0.8,-0.69 1.72,-1.15 2.76,-1.37 c -2.37,-1.49 -2.49,-4.31 -2.37,-6.84 c 0.51,-0.85 1.19,0.42 2.05,0.11 c 0.25,-0.43 0.37,-0.89 0.36,-1.39 c 0.92,-1.18 2.06,-1.47 3.44,-0.85 c 1.5,1 -0.33,1.43 -0.92,2.08 c -1.87,2.64 0.03,2.17 2.23,2.58 c 0.06,0.46 0.18,0.9 0.37,1.32 c 1.45,0.76 2.98,1.29 4.6,1.59 c 0.15,0.58 0.09,1.17 -0.16,1.77 Z"/></g>
<g><path fill="#f45d08" fill-opacity="0.996" stroke="#f45d08" stroke-width="0.5" stroke-opacity="0.996" d="M 392.08,547.21 c 2.6,1.24 4.91,8.95 8.6,7.52 c 0.98,1.07 1.99,2.11 3.01,3.14 c 2.24,2.24 4.5,4.45 6.79,6.64 c -0.27,0.51 -0.3,1.03 -0.1,1.56 c 3.1,3.77 8.57,6.78 12.36,9.18 c -0.94,3.77 0.17,1.69 1.86,4.17 c -0.81,0.4 -1.27,1.03 -1.38,1.88 c 0.79,0.47 1.33,1.13 1.63,1.97 c -0.78,0.8 -2.05,-0.65 -1.74,1.13 c 1.05,3.31 1.81,6.68 2.29,10.11 c 1.05,0.41 2.13,0.76 3.23,1.05 c -0.92,0.15 -1.73,0.51 -2.44,1.09 c 0.09,0.89 0.57,1.52 1.44,1.87 c -0.75,0.35 -1.51,0.68 -2.28,0.99 c 3.46,1.47 4.84,3.41 3.04,7.03 c 1.04,0.42 2.12,0.72 3.26,0.88 c -0.32,4.73 0.69,9.16 3.03,13.29 c 0.12,0.36 0.07,0.67 -0.17,0.94 c -0.66,-0.4 -1.33,-0.81 -1.99,-1.22 c -0.01,0.98 -0.04,2 -0.1,3.08 c 0.97,0.47 1.77,1.14 2.4,2.02 c 1.5,2.11 2.69,4.37 3.59,6.78 c 0.46,0.1 0.9,0.23 1.35,0.41 c 0.38,1.3 -0.05,2.26 -1.3,2.86 c 2.14,2.38 0.63,1.38 0.17,3.05 c 1.62,3.69 4.23,6.46 7.82,8.3 c 1.83,0.7 2.66,-3.53 3.93,-0.57 c -1.07,0.88 -3.89,4.57 -5.4,3.04 c -0.92,-0.69 -1.78,-1.46 -2.57,-2.3 c -12.23,-16.02 -24.09,-32.32 -35.59,-48.87 c 3.55,-0.96 -4.4,-4.28 1.87,-5.72 c -0.77,-0.33 -1.52,-0.68 -2.25,-1.05 c 0.83,-2.01 0.44,-3.76 -1.16,-5.24 c -1.47,-0.57 -0.22,1.03 -1,1.62 c -0.57,0.36 -1.17,0.63 -1.81,0.83 c 0.03,-1.02 0,-2.08 -0.09,-3.16 c 0.77,-0.25 1.49,-0.57 2.18,-0.97 c -1.29,-1.22 -0.68,-1.19 -0.99,-2.59 c -0.45,-1.95 -1.52,-3.42 -3.2,-4.43 c 0.64,-0.84 0.62,-1.64 -0.06,-2.4 c -1,-0.56 -2.04,-0.83 -3.13,-0.81 c 0.47,-1.21 0.73,-2.46 0.8,-3.76 c 0.65,-7.74 -3.66,-14.29 -6.23,-21.24 c 0,-0.71 0.11,-1.41 0.33,-2.1 Z"/></g>
<g><path fill="#ea5809" fill-opacity="0.996" stroke="#ea5809" stroke-width="0.5" stroke-opacity="0.996" d="M 549.78,486.37 c 0.23,0.58 0.21,1.14 -0.07,1.69 c -3.28,3.02 -6.33,6.26 -9.16,9.71 c 1.58,3.84 -3.11,-0.13 -0.97,3.75 c -0.14,0.66 -0.15,1.31 -0.02,1.97 c -0.97,0.35 -1.98,0.52 -3.05,0.52 c -1.38,1.48 -0.67,3.64 1.11,4.44 c -1.84,0.95 -3.29,0.46 -1.14,2.53 c 0.34,0.91 0.02,1.47 -0.95,1.67 c -0.5,-0.24 -0.95,-0.22 -1.36,0.04 c -0.79,1.8 -1.6,3.59 -2.42,5.38 c -0.23,0.44 -0.27,0.91 -0.12,1.39 c -1.12,0.28 -2.2,0.65 -3.24,1.1 c 0.07,0.57 0.15,1.13 0.24,1.7 c -0.32,1.31 -0.54,2.64 -0.65,3.99 c -0.34,0.51 -0.76,0.94 -1.28,1.27 c -1.13,0.35 -2.24,0.69 -3.34,1.03 c 0.49,0.6 0.8,1.28 0.91,2.04 c -0.21,1.65 -0.42,3.29 -0.64,4.91 c -1.35,0.88 -2.79,1.55 -4.33,2 c 0.75,0.4 1.53,0.74 2.35,1.02 c -0.73,1.44 -1.8,1.72 -3.22,0.85 c -1.47,1.37 1.78,2.06 1.42,3.98 c -0.77,0.45 -1.59,0.82 -2.43,1.11 c 0.62,1.33 -0.6,2.1 -1.23,0.9 c -0.14,-0.71 -0.37,-1.38 -0.68,-2.03 c -1.19,2.82 -1.79,2.77 0.15,5.15 c -1.53,0.4 -2.9,1.11 -4.12,2.12 c -0.62,-0.28 -1.26,-0.43 -1.93,-0.44 c 0.13,0.91 0.09,1.85 -0.12,2.81 c -1.54,1.7 -3.08,0.87 -0.9,2.5 c -0.13,0.82 -0.25,1.65 -0.34,2.48 c -0.51,1.25 -1.14,2.42 -1.9,3.52 c 0.7,0.72 2.24,0.97 0.65,2.01 c -0.9,-0.19 -1.78,-0.19 -2.64,0.02 c 0.92,1.86 2.65,2.84 4.25,4.06 c -1.28,0.11 -2.43,0.54 -3.46,1.28 c 0.28,0.49 0.55,0.97 0.78,1.45 c -0.48,1.94 -1.14,3.81 -1.98,5.59 c 0.66,-0.79 1.5,-1.27 2.51,-1.45 c 1.45,1.58 1.36,3.06 -0.26,4.45 c -0.98,0.01 -1.91,0.2 -2.77,0.58 c 0.33,0.31 0.63,0.63 0.9,0.96 c -0.65,1.65 -3.31,4.13 -2.07,5.89 c -17.31,20 -34.6,40.02 -51.88,60.05 c -1.27,-2.96 -2.1,1.27 -3.93,0.57 c -3.59,-1.84 -6.2,-4.61 -7.82,-8.3 c 0.46,-1.67 1.97,-0.67 -0.17,-3.05 c 1.25,-0.6 1.68,-1.56 1.3,-2.86 c -0.45,-0.18 -0.89,-0.31 -1.35,-0.41 c -0.9,-2.41 -2.09,-4.67 -3.59,-6.78 c -0.63,-0.88 -1.43,-1.55 -2.4,-2.02 c 0.06,-1.08 0.09,-2.1 0.1,-3.08 c 0.66,0.41 1.33,0.82 1.99,1.22 c 0.24,-0.27 0.29,-0.58 0.17,-0.94 c -2.34,-4.13 -3.35,-8.56 -3.03,-13.29 c -1.14,-0.16 -2.22,-0.46 -3.26,-0.88 c 1.8,-3.62 0.42,-5.56 -3.04,-7.03 c 0.77,-0.31 1.53,-0.64 2.28,-0.99 c -0.87,-0.35 -1.35,-0.98 -1.44,-1.87 c 0.71,-0.58 1.52,-0.94 2.44,-1.09 c -1.1,-0.29 -2.18,-0.64 -3.23,-1.05 c -0.48,-3.43 -1.24,-6.8 -2.29,-10.11 c -0.31,-1.78 0.96,-0.33 1.74,-1.13 c -0.3,-0.84 -0.84,-1.5 -1.63,-1.97 c 0.11,-0.85 0.57,-1.48 1.38,-1.88 c -1.69,-2.48 -2.8,-0.4 -1.86,-4.17 c 3.15,1.6 6.43,2.86 9.84,3.78 c 3.15,0.26 6.3,0.29 9.46,0.06 c -3.14,1.69 -4.82,3.97 -5.71,7.4 c 1.44,0.38 2.91,0.73 4.39,1.03 c -0.47,0.57 -0.82,1.18 -1.05,1.83 c 2.63,1.98 4.36,4.54 5.19,7.7 c -0.52,0.57 -1.17,1.91 -0.46,2.58 c 1.25,-0.39 2.34,-0.11 3.27,0.85 c -0.82,0.24 -1.59,0.58 -2.31,1.03 c 1.06,1.18 1.97,2.47 2.74,3.88 c 0.45,0.67 0.53,1.37 0.26,2.12 c 0.86,0.17 1.75,0.18 2.66,0.02 c 0.37,0.77 0.62,1.56 0.74,2.38 c 1.45,0.24 0.93,-1.83 1.76,-2.53 c 1.29,-0.08 2.56,0.06 3.81,0.41 c 0.1,-0.65 0.06,-1.33 -0.12,-2.05 c 0.75,-0.48 1.54,-0.89 2.37,-1.22 c -1.19,-0.62 -1.65,-1.56 -1.36,-2.83 c 0.85,-1.45 1.84,0.41 2.39,0.99 c 0.96,-0.99 -0.42,-2.76 -0.55,-3.91 c -0.04,-2.24 0.44,-4.36 1.44,-6.36 c 1.33,0.58 1.19,-0.28 2.07,-0.96 c 0.83,0.57 1.59,0.53 2.27,-0.14 c 0.3,-1.38 -1.69,-1.26 -2.44,-1.85 c 3.51,-1.94 -0.54,-2.8 1.03,-5.09 c 0.34,0.44 0.7,0.86 1.08,1.26 c 2.4,-1.85 3.36,-4.25 2.89,-7.2 c 0.81,-1.09 1.53,0.94 2.16,1.25 c 0.2,-1.35 0.4,-2.74 0.59,-4.15 c 0.24,-1.09 0.62,-2.12 1.15,-3.1 c -0.29,-0.31 -0.59,-0.62 -0.88,-0.93 c 0.72,-0.34 1.43,-0.69 2.14,-1.04 c -0.79,-0.35 -1.25,-0.94 -1.38,-1.77 c 0.54,-0.09 1.1,-0.14 1.69,-0.15 c 0.73,-0.67 1.44,-1.38 2.11,-2.12 c 1.51,-2.21 2.71,-4.55 3.6,-7.01 c -0.4,-0.29 -0.78,-0.61 -1.14,-0.95 c 0.33,-1.06 -0.07,-1.52 -1.21,-1.38 c -0.07,-0.4 0.04,-0.74 0.33,-1.02 c 6.16,-6.18 12.38,-12.3 18.65,-18.36 c 0.51,-0.59 0.68,-1.27 0.5,-2.03 c 0.8,0.17 1.54,0.02 2.22,-0.43 c 4.84,-4.43 9.61,-8.93 14.32,-13.5 c 0.85,-0.6 1.2,-2.22 -0.26,-1.87 c 1.79,-1.83 3.65,-3.58 5.6,-5.24 c 0.84,0.28 1.64,0.18 2.4,-0.3 c 2.71,-2.57 5.42,-5.16 8.11,-7.75 c 0.66,-0.64 0.93,-1.42 0.81,-2.32 c 0.39,-0.37 0.78,-0.74 1.16,-1.11 c 4.36,-3.89 8.68,-7.84 12.96,-11.83 c 1.91,-1.65 3.83,-3.3 5.75,-4.95 Z"/></g>
<g><path fill="#fc6509" fill-opacity="0.996" stroke="#fc6509" stroke-width="0.5" stroke-opacity="0.996" d="M 310.02,406.97 c -1.1,6.35 0.99,11.87 3.41,17.63 c 1.88,4.42 3.91,8.77 6.07,13.05 c 0.37,-0.38 0.71,-0.8 1.03,-1.25 c 1.24,1.97 2.66,3.83 4.24,5.58 c 3.09,5.83 6.39,11.55 9.9,17.13 c 2.09,3.47 4.21,6.92 6.34,10.36 c 3.3,5.29 6.62,10.57 9.97,15.83 c 3.26,5.57 11.7,17.63 14.05,22.51 c -0.1,0.82 0.01,1.6 0.35,2.34 c 5.86,7.57 10.53,16.02 16.53,23.48 c 0.49,0.21 0.99,0.24 1.5,0.08 c -0.24,0.8 -0.21,1.59 0.1,2.37 c 2.81,3.75 5.66,7.46 8.57,11.13 c -0.22,0.69 -0.33,1.39 -0.33,2.1 c 2.57,6.95 6.88,13.5 6.23,21.24 c -0.07,1.3 -0.33,2.55 -0.8,3.76 c 1.09,-0.02 2.13,0.25 3.13,0.81 c 0.68,0.76 0.7,1.56 0.06,2.4 c 1.68,1.01 2.75,2.48 3.2,4.43 c 0.31,1.4 -0.3,1.37 0.99,2.59 c -0.69,0.4 -1.41,0.72 -2.18,0.97 c 0.09,1.08 0.12,2.14 0.09,3.16 c 0.64,-0.2 1.24,-0.47 1.81,-0.83 c 0.78,-0.59 -0.47,-2.19 1,-1.62 c 1.6,1.48 1.99,3.23 1.16,5.24 c 0.73,0.37 1.48,0.72 2.25,1.05 c -6.27,1.44 1.68,4.76 -1.87,5.72 c -39.62,-58.19 -75.8,-123.7 -104.52,-187.92 c -0.22,-0.94 -0.92,-2.53 0.22,-3.16 c 2.49,-0.15 4.99,-0.21 7.5,-0.18 Z"/></g>
<g><path fill="#fda01e" fill-opacity="0.996" stroke="#fda01e" stroke-width="0.5" stroke-opacity="0.996" d="M 348.94,406.11 c 10.04,-0.07 20.07,-0.08 30.1,-0.02 c -0.36,0.38 -0.74,0.73 -1.15,1.05 c -7.8,-0.53 -18.78,0.27 -24.44,6.4 c 0.22,1.1 0.56,2.5 1.99,1.82 c 1.04,3.57 1.65,7.22 1.81,10.95 c 0.55,0.13 1.12,0.21 1.73,0.23 c 1.45,1.07 0.15,1.22 -0.59,1.95 c 0.7,1.82 1.88,1.12 0.78,3.24 c -0.1,0.39 0,0.7 0.31,0.93 c 0.86,-0.55 1.54,-1.3 2.03,-2.22 c 0.44,1.27 0.82,2.59 1.16,3.95 c -0.39,0.75 -0.82,1.47 -1.3,2.16 c 3.23,1.35 2.42,0.37 1.02,3 c 0.78,0.26 1.52,0.58 2.23,0.96 c -1.41,0.69 -1.54,1.61 -0.4,2.78 c 0.57,0.1 1.1,0.26 1.62,0.46 c 0.25,1.27 0.49,2.55 0.69,3.84 c -0.36,0.31 -0.73,0.62 -1.11,0.91 c 0.92,0.92 1.78,1.89 2.58,2.91 c 0.67,-0.06 1.29,0.04 1.86,0.28 c 0.87,2.32 0.7,4.55 -0.5,6.7 c 0.88,0.69 1.76,1.39 2.62,2.12 c 2.1,2.41 0.18,1.21 -0.64,2.96 c 0.66,0.82 2.57,-0.53 3.47,-0.55 c 0.34,0.5 0.61,1.03 0.8,1.6 c -0.68,2.32 1.47,2.25 -1.25,3.98 c 0.6,0.81 1.33,1.48 2.2,2.01 c -1.88,1.5 -0.99,0.74 -0.79,2.91 c -0.6,2.48 -2.6,-0.29 -2.52,1.86 c 0.59,1.44 1.63,2.43 3.1,2.98 c 0.38,0.24 0.56,0.58 0.54,1.02 c -0.6,0.17 -1.21,0.24 -1.84,0.21 c -0.78,0.52 -1.35,1.21 -1.72,2.06 c 0.68,0.76 1.44,1.43 2.29,2.01 c -1.58,2.24 -1.61,1.7 -0.01,3.93 c -1.41,0.39 -2.85,0.72 -4.32,0.99 c 1.3,0.41 2.64,0.65 4.03,0.73 c 0.16,0.15 0.32,0.31 0.48,0.46 c -0.32,1.32 -0.8,2.6 -1.46,3.83 c 1.47,0.7 2.64,1.74 3.5,3.12 c -0.21,0.82 -0.69,1.45 -1.46,1.88 c 0.21,1.4 0.33,2.79 0.35,4.18 c -0.38,0.95 -0.83,1.86 -1.36,2.75 c 0.44,1.02 0.85,2.05 1.24,3.08 c -1.68,0.76 -1.86,1.76 -0.55,2.99 c 1.02,0.24 1.95,0.66 2.78,1.25 c 0.67,2.74 -1.93,1.82 0.89,4 c 0.63,1.24 -3.04,4.4 -3.67,3.65 c -2.64,-3.96 -5.35,-7.88 -8.12,-11.76 c -0.48,-0.26 -0.93,-0.19 -1.34,0.2 c -0.49,-0.39 -1.01,-0.73 -1.57,-1.03 c -2.35,-4.88 -10.79,-16.94 -14.05,-22.51 c 0.04,-0.41 0.23,-0.73 0.55,-0.97 c 1.58,2.14 3.26,4.22 5.03,6.23 c 0.38,-0.54 0.61,-1.14 0.69,-1.81 c 2.06,-2.54 2.6,0.86 3.28,1.96 c 0.42,-0.08 0.73,-0.3 0.95,-0.67 c -0.1,-0.96 0.04,-1.89 0.43,-2.79 c -0.3,-0.75 -0.81,-1.34 -1.53,-1.75 c 4.34,-3.13 -0.32,-2.84 -0.13,-4.83 c 2.45,-1.1 2.74,-0.61 2.98,-3.9 c 0.51,-0.23 1.04,-0.39 1.6,-0.5 c -0.63,-2.26 -0.67,-1.9 0.79,-3.79 c -2.4,-1.94 -2.59,-0.76 -1.7,-3.97 c -0.01,-2.79 -2.97,1.01 -2.69,-1.8 c 1.27,-0.97 2.6,-1.99 1.09,-3.59 c -1.94,-1 -2.87,-1.3 -0.75,-2.63 c -0.85,-0.54 -1.59,-1.21 -2.2,-2 c -0.06,-2.29 -0.77,-4.36 -2.14,-6.21 c 0.27,-0.87 0.46,-1.75 0.54,-2.65 c -1.38,-0.95 -2.59,-2.07 -3.63,-3.36 c -0.11,-2.09 2.36,0.36 1.6,-1.54 c -1.07,-0.54 -2.19,-0.97 -3.37,-1.26 c 0.8,-0.62 3.51,-0.44 2.1,-2.13 c -1.02,0.51 -1.74,0.25 -2.14,-0.79 c 0.51,-0.68 0.96,-1.39 1.35,-2.14 c -0.1,-0.63 -0.11,-1.26 -0.04,-1.89 c -0.88,-0.64 -1.66,-1.38 -2.35,-2.23 c -0.53,-0.83 -0.78,-1.75 -0.73,-2.74 c -0.71,-0.51 -1.22,-1.15 -1.55,-1.95 c 0.3,-1.77 0.58,-3.55 0.85,-5.34 c -0.29,-0.77 -0.8,-1.36 -1.53,-1.79 c 0.54,-0.91 1.31,-1.58 2.31,-2.01 c -1.33,-2.27 -2.18,-2.07 -0.96,-4.96 c -1.11,-0.34 -2.24,-0.67 -3.38,-0.99 c 1.14,-0.23 2.25,-0.56 3.32,-0.98 c -3.73,-2.76 0.51,-1.29 -0.23,-4.02 c 2.7,-0.86 5.43,-1.56 8.2,-2.11 c -2.33,-0.29 -4.68,-0.42 -7.05,-0.39 c -0.71,0 -1.25,-0.29 -1.6,-0.9 Z"/></g>
<g><path fill="#fb8817" fill-opacity="0.996" stroke="#fb8817" stroke-width="0.5" stroke-opacity="0.996" d="M 472.77,483.38 c 0.7,0.21 1.3,0.57 1.79,1.07 c -1.27,0.98 -2.06,2.26 -2.37,3.84 c 0.24,1.12 -0.9,4.16 1.31,3.06 c 0.3,0.3 0.43,0.67 0.38,1.12 c -0.85,3 -0.69,2.4 1.73,4.1 c -1.54,0.36 -2.95,0.99 -4.24,1.89 c 0.72,0.41 1.46,0.76 2.23,1.05 c -0.44,1.68 0.19,2.31 1.89,1.89 c 0.36,0.49 0.75,0.96 1.17,1.42 c 1.02,0.1 2,0.3 2.95,0.61 c -0.36,0.34 -0.64,0.73 -0.84,1.17 c 0.67,2.29 0.48,4.52 -0.57,6.68 c -0.45,0.61 -1.06,1.03 -1.81,1.24 c 1.64,1.08 3.42,0.38 0.98,1.93 c 0.4,2.08 1.57,3.52 3.52,4.31 c 1.33,0.06 2.61,0.3 3.82,0.73 c -1.42,1.4 -5.65,-0.36 -7.36,1.04 c 1.06,0.37 2.13,0.74 3.21,1.11 c 2.5,-1.29 3.27,0.53 0.85,1.88 c 2.42,2.6 2.87,-0.37 5.19,0.94 c -0.6,0.41 -1.16,0.88 -1.69,1.38 c -1.6,1.97 0.96,3.42 2.64,2.54 c 0.84,0.51 -0.1,1.44 -0.15,2.15 c 1.4,0.3 2.81,0.61 4.21,0.95 c -3.42,1.24 -4.07,4.68 -4.02,7.97 c 0.34,0.41 0.79,0.65 1.34,0.7 c -3.44,3.99 -7.03,7.85 -10.78,11.58 c -0.77,0.55 -1.54,1.1 -2.32,1.64 c -3.94,-1.32 -5.64,-0.59 -8.82,-3.97 c 0.51,-0.41 0.58,-0.88 0.21,-1.39 c -3.76,-1.58 -3.51,-3.48 -5.05,-6.38 c 0.73,-1.72 1.55,-3.42 2.44,-5.11 c 0.52,-0.5 1.04,-1.01 1.56,-1.51 c 1.39,-1.67 2.62,-3.44 3.7,-5.28 c -0.51,-0.89 -1.33,0.33 -2.18,0.02 c -1.13,-0.37 -2.24,-0.78 -3.32,-1.21 c 0.86,-0.39 1.74,-0.73 2.66,-1.03 c 0.82,-0.73 1.67,-1.42 2.54,-2.06 c -0.26,-0.29 -0.6,-0.43 -1.01,-0.41 c -2.62,0.8 -3.49,1.84 -2.7,-1.39 c -0.72,-0.09 -1.46,-0.06 -2.24,0.09 c -0.42,-0.23 -0.55,-0.57 -0.4,-1.02 c 1.35,-1.24 2.51,-2.64 3.46,-4.21 c -0.24,-0.29 -0.56,-0.39 -0.95,-0.29 c -2.12,1.16 -2.02,2.35 -4.32,0.29 c 0.84,-0.32 1.34,-0.91 1.47,-1.76 c -0.78,-0.55 -1.61,-0.99 -2.5,-1.33 c -0.24,-1.16 -0.49,-2.33 -0.76,-3.5 c -0.52,-1.27 0.83,-3.92 -0.09,-4.57 c -2.56,1.11 -4.95,0.84 -7.17,-0.82 c 0.82,-0.23 1.58,-0.57 2.27,-1.02 c -0.72,-3.53 -0.86,-1.8 -3,-1.33 c -0.8,0.06 -1.56,-0.05 -2.29,-0.33 c 1.6,-0.17 3.04,-0.75 4.34,-1.75 c 1,-1.58 0.69,-2.82 -0.92,-3.73 c 6.63,-5.05 13.3,-10.05 20.01,-14.99 Z"/></g>
<g><path fill="#fc9218" fill-opacity="0.996" stroke="#fc9218" stroke-width="0.5" stroke-opacity="0.996" d="M 485.81,473.82 c 0.97,0.15 1.92,0.37 2.83,0.65 c -1.82,1.41 -3.6,2.86 -5.33,4.37 c -0.88,1.2 0.37,2.94 1.25,3.74 c 6.8,-2.4 0.02,4.3 3.94,2.93 c 2.04,1.12 -3.51,3.47 2.2,5.2 c 0.89,0.81 1.8,1.57 2.75,2.3 c 0.58,1.4 -0.71,1.06 1.11,2.48 c -1.52,0.86 -1.49,1.66 0.08,2.42 c 1.22,-0.19 2.44,-0.42 3.65,-0.7 c 0.87,0.3 1.65,0.75 2.34,1.34 c -0.57,0.78 -1.29,1.4 -2.16,1.85 c 0.44,0.34 0.82,0.73 1.14,1.17 c 0.27,5.01 3.85,5.09 7.71,4.61 c 0.17,0.16 0.35,0.33 0.52,0.5 c 0.05,1.04 0.28,2.01 0.69,2.91 c 0.3,-0.42 0.62,-0.81 0.97,-1.18 c 1.11,0.27 2.18,0.65 3.2,1.12 c -0.45,1.84 -2.09,2.75 -3.24,4.1 c -1.51,-0.41 -3.65,-2.48 -5.11,-1.17 c 0.96,0.62 1.96,1.19 2.99,1.72 c 0.16,1.14 0.37,2.3 0.63,3.46 c 0.04,0.53 -0.12,1 -0.46,1.4 c -1.13,0.47 -2.22,1.02 -3.25,1.63 c -0.36,2.1 0.02,2.85 0.68,4.68 c -5.07,5.23 -10.41,10.16 -16.01,14.8 c -0.55,-0.05 -1,-0.29 -1.34,-0.7 c -0.05,-3.29 0.6,-6.73 4.02,-7.97 c -1.4,-0.34 -2.81,-0.65 -4.21,-0.95 c 0.05,-0.71 0.99,-1.64 0.15,-2.15 c -1.68,0.88 -4.24,-0.57 -2.64,-2.54 c 0.53,-0.5 1.09,-0.97 1.69,-1.38 c -2.32,-1.31 -2.77,1.66 -5.19,-0.94 c 2.42,-1.35 1.65,-3.17 -0.85,-1.88 c -1.08,-0.37 -2.15,-0.74 -3.21,-1.11 c 1.71,-1.4 5.94,0.36 7.36,-1.04 c -1.21,-0.43 -2.49,-0.67 -3.82,-0.73 c -1.95,-0.79 -3.12,-2.23 -3.52,-4.31 c 2.44,-1.55 0.66,-0.85 -0.98,-1.93 c 0.75,-0.21 1.36,-0.63 1.81,-1.24 c 1.05,-2.16 1.24,-4.39 0.57,-6.68 c 0.2,-0.44 0.48,-0.83 0.84,-1.17 c -0.95,-0.31 -1.93,-0.51 -2.95,-0.61 c -0.42,-0.46 -0.81,-0.93 -1.17,-1.42 c -1.7,0.42 -2.33,-0.21 -1.89,-1.89 c -0.77,-0.29 -1.51,-0.64 -2.23,-1.05 c 1.29,-0.9 2.7,-1.53 4.24,-1.89 c -2.42,-1.7 -2.58,-1.1 -1.73,-4.1 c 0.05,-0.45 -0.08,-0.82 -0.38,-1.12 c -2.21,1.1 -1.07,-1.94 -1.31,-3.06 c 0.31,-1.58 1.1,-2.86 2.37,-3.84 c -0.49,-0.5 -1.09,-0.86 -1.79,-1.07 c 4.3,-3.25 8.64,-6.43 13.04,-9.56 Z"/></g>
<g><path fill="#feb231" fill-opacity="0.996" stroke="#feb231" stroke-width="0.5" stroke-opacity="0.996" d="M 559.77,425.56 c 0.72,3.61 -6.1,4.75 -6.49,6.97 c 0.74,0.27 1.49,0.23 2.25,-0.13 c 0.59,0.11 0.97,0.44 1.16,0.99 c -1.49,1.4 -1.64,0.76 -0.13,2.16 c -0.32,0.99 -0.71,1.95 -1.2,2.88 c 2.09,2.26 2.84,3.99 6.1,5.15 c 1.73,0.52 3.46,0.82 5.2,0.89 c -0.29,0.55 -0.65,1.05 -1.1,1.49 c -0.07,0.67 -0.17,1.32 -0.3,1.95 c -1.12,0.15 -0.98,-1.11 -1.74,-1.53 c -2.63,2.92 -0.25,2.3 1.96,3.14 c 1.46,-0.56 1.22,0.19 2.04,1.19 c 2.15,-0.74 1.37,-2.37 -0.13,-3.21 c 0.6,-0.57 1.31,-0.93 2.13,-1.09 c 0.82,1.2 3.37,4.53 2.85,6.04 c 1.33,0.57 2.6,1.24 3.83,2.03 c 4.03,1.91 5.22,0.96 8.87,0.68 c -0.82,0.95 -1.71,1.83 -2.68,2.64 c -5.39,3.98 -10.62,8.16 -15.69,12.55 c -0.48,0.43 -1.04,0.66 -1.68,0.67 c -1.87,0.05 -2.67,-0.8 -2.39,-2.55 c -0.67,-2.46 -1.6,-0.32 -2.35,0.36 c -0.69,0.26 -1.32,0.18 -1.9,-0.24 c 0.46,-0.64 2.47,-1.48 0.99,-2.32 c -2.33,-0.15 -1.15,1.36 -3.04,-1.04 c -1.15,-0.37 -1.5,0.81 -2.67,0.65 c -0.25,-0.41 -0.27,-0.85 -0.07,-1.32 c -5.78,-1.21 -11.06,-4.05 -16.24,-6.87 c -0.32,0.27 -0.59,0.59 -0.81,0.96 c -0.3,-0.64 -0.53,-1.31 -0.68,-2.02 c -0.79,-0.02 -1.58,-0.19 -2.38,-0.51 c -1.25,-0.56 -0.9,-2.26 -0.31,-3.16 c 0.58,0.06 1.09,-0.08 1.53,-0.44 c -1,-0.67 -1.96,-1.41 -2.86,-2.24 c -0.6,-0.91 -0.83,-1.91 -0.69,-2.98 c -0.28,-0.28 -0.54,-0.57 -0.79,-0.88 c 2.7,-1.97 5.43,-3.93 8.21,-5.88 c -0.62,-0.4 -1.15,-0.9 -1.58,-1.49 c 7.47,-4.71 15.06,-9.21 22.78,-13.49 Z"/></g>
<g><path fill="#fda928" fill-opacity="0.996" stroke="#fda928" stroke-width="0.5" stroke-opacity="0.996" d="M 377.89,407.14 c 0.15,0.38 0.43,0.6 0.85,0.66 c 3.51,-0.17 5.81,1.43 6.9,4.78 c -0.24,0.32 -0.55,0.39 -0.93,0.21 c -2.13,-2.6 -5.92,-0.73 -5.61,2.82 c -0.04,0.4 0.08,0.73 0.36,0.99 c 0.99,-0.42 2.02,-0.66 3.09,-0.7 c 2.02,0.18 1.55,1.73 0.13,2.4 c -0.85,0.19 -1.69,0.32 -2.52,0.39 c -0.28,1.3 2.13,1.43 2.49,2.77 c -0.3,0.33 -0.69,0.5 -1.15,0.49 c -0.8,-0.21 -1.57,-0.3 -2.33,-0.27 c -1.17,1.53 -1.41,3.17 -0.71,4.92 c 0.82,-0.74 1.61,-1.53 2.36,-2.35 c -0.08,0.44 -0.13,0.89 -0.14,1.34 c -1,1.28 -1.28,2.73 -0.84,4.34 c 0.43,1.84 1.37,3.35 2.81,4.53 c -0.76,0.39 -1.55,0.75 -2.34,1.09 c 0.63,0.27 1.29,0.47 1.98,0.59 c 0.17,0.52 0.28,1.07 0.35,1.64 c 0.68,0.32 1.29,0.73 1.85,1.24 c -0.63,0.83 -1.04,1.83 -1.23,2.99 c -0.33,2.75 0.81,4.56 3.42,5.43 c -1.98,1.6 -1.3,0.59 -0.15,2.31 c 1.04,3.35 2.22,6.65 3.55,9.89 c 0.51,0.3 1.02,0.59 1.53,0.87 c -0.38,1.4 -0.73,2.79 -1.03,4.18 c -0.55,-2.37 -0.59,-2.95 -3.41,-2.77 c 0.25,-0.6 0.31,-1.19 0.16,-1.77 c -1.62,-0.3 -3.15,-0.83 -4.6,-1.59 c -0.19,-0.42 -0.31,-0.86 -0.37,-1.32 c -2.2,-0.41 -4.1,0.06 -2.23,-2.58 c 0.59,-0.65 2.42,-1.08 0.92,-2.08 c -1.38,-0.62 -2.52,-0.33 -3.44,0.85 c 0.01,0.5 -0.11,0.96 -0.36,1.39 c -0.86,0.31 -1.54,-0.96 -2.05,-0.11 c -0.12,2.53 0,5.35 2.37,6.84 c -1.04,0.22 -1.96,0.68 -2.76,1.37 c -0.9,0.02 -2.81,1.37 -3.47,0.55 c 0.82,-1.75 2.74,-0.55 0.64,-2.96 c -0.86,-0.73 -1.74,-1.43 -2.62,-2.12 c 1.2,-2.15 1.37,-4.38 0.5,-6.7 c -0.57,-0.24 -1.19,-0.34 -1.86,-0.28 c -0.8,-1.02 -1.66,-1.99 -2.58,-2.91 c 0.38,-0.29 0.75,-0.6 1.11,-0.91 c -0.2,-1.29 -0.44,-2.57 -0.69,-3.84 c -0.52,-0.2 -1.05,-0.36 -1.62,-0.46 c -1.14,-1.17 -1.01,-2.09 0.4,-2.78 c -0.71,-0.38 -1.45,-0.7 -2.23,-0.96 c 1.4,-2.63 2.21,-1.65 -1.02,-3 c 0.48,-0.69 0.91,-1.41 1.3,-2.16 c -0.34,-1.36 -0.72,-2.68 -1.16,-3.95 c -0.49,0.92 -1.17,1.67 -2.03,2.22 c -0.31,-0.23 -0.41,-0.54 -0.31,-0.93 c 1.1,-2.12 -0.08,-1.42 -0.78,-3.24 c 0.74,-0.73 2.04,-0.88 0.59,-1.95 c -0.61,-0.02 -1.18,-0.1 -1.73,-0.23 c -0.16,-3.73 -0.77,-7.38 -1.81,-10.95 c -1.43,0.68 -1.77,-0.72 -1.99,-1.82 c 5.66,-6.13 16.64,-6.93 24.44,-6.4 Z M 536.99,439.05 c 0.43,0.59 0.96,1.09 1.58,1.49 c -2.78,1.95 -5.51,3.91 -8.21,5.88 c 0.25,0.31 0.51,0.6 0.79,0.88 c -0.14,1.07 0.09,2.07 0.69,2.98 c 0.9,0.83 1.86,1.57 2.86,2.24 c -0.44,0.36 -0.95,0.5 -1.53,0.44 c -0.59,0.9 -0.94,2.6 0.31,3.16 c 0.8,0.32 1.59,0.49 2.38,0.51 c 0.15,0.71 0.38,1.38 0.68,2.02 c 0.22,-0.37 0.49,-0.69 0.81,-0.96 c 5.18,2.82 10.46,5.66 16.24,6.87 c -0.2,0.47 -0.18,0.91 0.07,1.32 c 1.17,0.16 1.52,-1.02 2.67,-0.65 c 1.89,2.4 0.71,0.89 3.04,1.04 c 1.48,0.84 -0.53,1.68 -0.99,2.32 c 0.58,0.42 1.21,0.5 1.9,0.24 c 0.75,-0.68 1.68,-2.82 2.35,-0.36 c -0.28,1.75 0.52,2.6 2.39,2.55 c -0.48,1.96 -4.31,3.17 -3.98,5.34 c -3.71,3.38 -7.46,6.72 -11.26,10.01 c -1.92,1.65 -3.84,3.3 -5.75,4.95 c -2.39,-0.78 1.48,-2.81 -0.52,-4 c -0.77,0.56 -1.08,2.36 -2,0.62 c -0.9,-1.8 -1.82,-3.58 -2.75,-5.36 c -1.15,-0.56 -1.45,0.12 -2.54,-1.33 c -0.78,-0.96 -1.42,-2 -1.92,-3.13 c -2.68,-0.58 0.22,2.73 -0.78,3.47 c -0.82,-0.16 -1.63,-0.23 -2.43,-0.21 c -0.43,-0.72 -3.53,-3.19 -2.97,-4.22 c 1.17,-2.09 0.57,-1.87 2.46,-1.74 c 0.83,-0.47 1.51,-1.11 2.02,-1.9 c -0.4,-0.35 -0.82,-0.69 -1.24,-1.03 c 0.24,-1.65 1,-2.99 2.3,-4.02 c -1.95,-1.15 -4.02,-2.06 -6.21,-2.71 c -0.33,0.32 -0.66,0.64 -0.99,0.96 c -1.77,-1.5 -3.74,-1.23 -5.03,-3.37 c -0.24,1.05 -0.19,2.1 0.13,3.16 c -0.99,1.78 -1.69,-2.17 -2.13,-2.49 c -1.32,-1.91 -2.65,-3.79 -4,-5.66 c -0.62,0.44 -1.25,0.85 -1.89,1.23 c -0.7,-0.46 -0.83,-1.04 -0.39,-1.74 c 2.13,-0.87 9.67,-6.4 8.62,-8.88 c 0.07,-0.1 0.15,-0.19 0.22,-0.29 c 4.93,-3.31 9.93,-6.52 15,-9.63 Z"/></g>
<g><path fill="#fda321" fill-opacity="0.996" stroke="#fda321" stroke-width="0.5" stroke-opacity="0.996" d="M 521.77,448.97 c 1.05,2.48 -6.49,8.01 -8.62,8.88 c -0.44,0.7 -0.31,1.28 0.39,1.74 c 0.64,-0.38 1.27,-0.79 1.89,-1.23 c 1.35,1.87 2.68,3.75 4,5.66 c 0.44,0.32 1.14,4.27 2.13,2.49 c -0.32,-1.06 -0.37,-2.11 -0.13,-3.16 c 1.29,2.14 3.26,1.87 5.03,3.37 c 0.33,-0.32 0.66,-0.64 0.99,-0.96 c 2.19,0.65 4.26,1.56 6.21,2.71 c -1.3,1.03 -2.06,2.37 -2.3,4.02 c 0.42,0.34 0.84,0.68 1.24,1.03 c -0.51,0.79 -1.19,1.43 -2.02,1.9 c -1.89,-0.13 -1.29,-0.35 -2.46,1.74 c -0.56,1.03 2.54,3.5 2.97,4.22 c 0.8,-0.02 1.61,0.05 2.43,0.21 c 1,-0.74 -1.9,-4.05 0.78,-3.47 c 0.5,1.13 1.14,2.17 1.92,3.13 c 1.09,1.45 1.39,0.77 2.54,1.33 c 0.93,1.78 1.85,3.56 2.75,5.36 c 0.92,1.74 1.23,-0.06 2,-0.62 c 2,1.19 -1.87,3.22 0.52,4 c -4.28,3.99 -8.6,7.94 -12.96,11.83 c -0.82,-0.11 -1.11,-0.54 -0.87,-1.29 c 1.33,-0.97 2.44,-2.13 3.35,-3.48 c -0.95,-0.06 -1.91,0.06 -2.88,0.34 c -0.73,-0.19 -3.38,-1.3 -2.13,-2.36 c 2.57,1.17 3.4,-3.14 0.38,-2.88 c -1.28,0.2 -4.44,2.1 -5.51,1.07 c 0.45,-1.28 2.5,-2.48 0.13,-3.18 c -0.47,0.68 -1.08,1.15 -1.84,1.4 c -0.21,-0.56 -0.32,-1.16 -0.31,-1.79 c -0.64,-1.16 -1.8,-0.14 -2.85,-0.58 c -1.5,1.5 -0.61,1.56 -2,0.02 c -0.52,0.24 -0.97,0.19 -1.35,-0.15 c -0.05,-1.38 -0.33,-2.7 -0.87,-3.97 c -0.49,-1.72 1.19,-0.28 1.98,-0.47 c 1.24,-1.82 -2.71,-1.79 -3.6,-2.02 c -0.55,-0.79 -1.01,-1.64 -1.38,-2.53 c -0.76,0.13 -1.48,0.13 -2.17,0 c -0.12,-1.53 -0.26,-3.06 -0.42,-4.59 c -0.86,-0.45 -1.72,-0.92 -2.56,-1.41 c -0.2,-0.65 -0.42,-1.28 -0.67,-1.9 c -0.85,0.57 -1.52,1.31 -2.02,2.23 c -0.35,-1.12 -0.85,-2.16 -1.5,-3.13 c -1.26,-0.87 -1.71,0.43 -2.53,1.06 c -1.84,-2.62 -2.75,-3.66 -1.06,-6.65 c 1.86,-1.1 3.72,-2.25 5.57,-3.42 c 1,-1.25 2.22,-2.23 3.66,-2.93 c -0.56,-0.39 -1.18,-0.65 -1.86,-0.79 c 4.75,-3.31 9.51,-6.56 14.28,-9.76 c 0.56,-0.37 1.14,-0.71 1.73,-1.02 Z"/></g>
<g><path fill="#fd9b1b" fill-opacity="0.996" stroke="#fd9b1b" stroke-width="0.5" stroke-opacity="0.996" d="M 505.76,459.75 c 0.68,0.14 1.3,0.4 1.86,0.79 c -1.44,0.7 -2.66,1.68 -3.66,2.93 c -1.85,1.17 -3.71,2.32 -5.57,3.42 c -1.69,2.99 -0.78,4.03 1.06,6.65 c 0.82,-0.63 1.27,-1.93 2.53,-1.06 c 0.65,0.97 1.15,2.01 1.5,3.13 c 0.5,-0.92 1.17,-1.66 2.02,-2.23 c 0.25,0.62 0.47,1.25 0.67,1.9 c 0.84,0.49 1.7,0.96 2.56,1.41 c 0.16,1.53 0.3,3.06 0.42,4.59 c 0.69,0.13 1.41,0.13 2.17,0 c 0.37,0.89 0.83,1.74 1.38,2.53 c 0.89,0.23 4.84,0.2 3.6,2.02 c -0.79,0.19 -2.47,-1.25 -1.98,0.47 c 0.54,1.27 0.82,2.59 0.87,3.97 c 0.38,0.34 0.83,0.39 1.35,0.15 c 1.39,1.54 0.5,1.48 2,-0.02 c 1.05,0.44 2.21,-0.58 2.85,0.58 c -0.01,0.63 0.1,1.23 0.31,1.79 c 0.76,-0.25 1.37,-0.72 1.84,-1.4 c 2.37,0.7 0.32,1.9 -0.13,3.18 c 1.07,1.03 4.23,-0.87 5.51,-1.07 c 3.02,-0.26 2.19,4.05 -0.38,2.88 c -1.25,1.06 1.4,2.17 2.13,2.36 c 0.97,-0.28 1.93,-0.4 2.88,-0.34 c -0.91,1.35 -2.02,2.51 -3.35,3.48 c -0.24,0.75 0.05,1.18 0.87,1.29 c -0.38,0.37 -0.77,0.74 -1.16,1.11 c -3.81,3.42 -7.58,6.88 -11.32,10.37 c -1.95,1.66 -3.81,3.41 -5.6,5.24 c -5.36,5.34 -10.78,10.61 -16.28,15.8 c -6.34,5.07 -11.73,11.55 -17.73,17.05 c -0.28,-0.33 -0.55,-0.66 -0.83,-0.99 c 3.75,-3.73 7.34,-7.59 10.78,-11.58 c 5.6,-4.64 10.94,-9.57 16.01,-14.8 c -0.66,-1.83 -1.04,-2.58 -0.68,-4.68 c 1.03,-0.61 2.12,-1.16 3.25,-1.63 c 0.34,-0.4 0.5,-0.87 0.46,-1.4 c -0.26,-1.16 -0.47,-2.32 -0.63,-3.46 c -1.03,-0.53 -2.03,-1.1 -2.99,-1.72 c 1.46,-1.31 3.6,0.76 5.11,1.17 c 1.15,-1.35 2.79,-2.26 3.24,-4.1 c -1.02,-0.47 -2.09,-0.85 -3.2,-1.12 c -0.35,0.37 -0.67,0.76 -0.97,1.18 c -0.41,-0.9 -0.64,-1.87 -0.69,-2.91 c -0.17,-0.17 -0.35,-0.34 -0.52,-0.5 c -3.86,0.48 -7.44,0.4 -7.71,-4.61 c -0.32,-0.44 -0.7,-0.83 -1.14,-1.17 c 0.87,-0.45 1.59,-1.07 2.16,-1.85 c -0.69,-0.59 -1.47,-1.04 -2.34,-1.34 c -1.21,0.28 -2.43,0.51 -3.65,0.7 c -1.57,-0.76 -1.6,-1.56 -0.08,-2.42 c -1.82,-1.42 -0.53,-1.08 -1.11,-2.48 c -0.95,-0.73 -1.86,-1.49 -2.75,-2.3 c -5.71,-1.73 -0.16,-4.08 -2.2,-5.2 c -3.92,1.37 2.86,-5.33 -3.94,-2.93 c -0.88,-0.8 -2.13,-2.54 -1.25,-3.74 c 1.73,-1.51 3.51,-2.96 5.33,-4.37 c -0.91,-0.28 -1.86,-0.5 -2.83,-0.65 c 6.56,-4.81 13.22,-9.5 19.95,-14.07 Z"/></g>
<g><path fill="#e54f09" fill-opacity="0.996" stroke="#e54f09" stroke-width="0.5" stroke-opacity="0.996" d="M 477.23,557.08 c 1.14,-0.14 1.54,0.32 1.21,1.38 c 0.36,0.34 0.74,0.66 1.14,0.95 c -0.89,2.46 -2.09,4.8 -3.6,7.01 c -0.67,0.74 -1.38,1.45 -2.11,2.12 c -0.59,0.01 -1.15,0.06 -1.69,0.15 c 0.13,0.83 0.59,1.42 1.38,1.77 c -0.71,0.35 -1.42,0.7 -2.14,1.04 c 0.29,0.31 0.59,0.62 0.88,0.93 c -0.53,0.98 -0.91,2.01 -1.15,3.1 c -0.19,1.41 -0.39,2.8 -0.59,4.15 c -0.63,-0.31 -1.35,-2.34 -2.16,-1.25 c 0.47,2.95 -0.49,5.35 -2.89,7.2 c -0.38,-0.4 -0.74,-0.82 -1.08,-1.26 c -1.57,2.29 2.48,3.15 -1.03,5.09 c 0.75,0.59 2.74,0.47 2.44,1.85 c -0.68,0.67 -1.44,0.71 -2.27,0.14 c -0.88,0.68 -0.74,1.54 -2.07,0.96 c -1,2 -1.48,4.12 -1.44,6.36 c 0.13,1.15 1.51,2.92 0.55,3.91 c -0.55,-0.58 -1.54,-2.44 -2.39,-0.99 c -0.29,1.27 0.17,2.21 1.36,2.83 c -0.83,0.33 -1.62,0.74 -2.37,1.22 c 0.18,0.72 0.22,1.4 0.12,2.05 c -1.25,-0.35 -2.52,-0.49 -3.81,-0.41 c -0.83,0.7 -0.31,2.77 -1.76,2.53 c -0.12,-0.82 -0.37,-1.61 -0.74,-2.38 c -0.91,0.16 -1.8,0.15 -2.66,-0.02 c 0.27,-0.75 0.19,-1.45 -0.26,-2.12 c -0.77,-1.41 -1.68,-2.7 -2.74,-3.88 c 0.72,-0.45 1.49,-0.79 2.31,-1.03 c -0.93,-0.96 -2.02,-1.24 -3.27,-0.85 c -0.71,-0.67 -0.06,-2.01 0.46,-2.58 c -0.83,-3.16 -2.56,-5.72 -5.19,-7.7 c 0.23,-0.65 0.58,-1.26 1.05,-1.83 c -1.48,-0.3 -2.95,-0.65 -4.39,-1.03 c 0.89,-3.43 2.57,-5.71 5.71,-7.4 c 2.61,-0.81 5.22,-1.68 7.82,-2.6 c 1.38,-0.41 1.55,-1.86 -0.02,-1.83 c 0.69,-0.31 1.37,-0.62 2.04,-0.95 c 1.07,0.6 2.16,0.63 3.26,0.08 c 4.96,-3 9.69,-6.33 14.2,-9.98 c 0.57,-0.7 0.67,-1.46 0.3,-2.29 c 3.1,1.42 5.93,-4.5 7.59,-4.44 Z"/></g>
<g><path fill="#fb8d1b" fill-opacity="0.996" stroke="#fb8d1b" stroke-width="0.5" stroke-opacity="0.996" d="M 340.96,406.25 c 0.85,0.67 1.8,1.17 2.84,1.5 c -0.01,0.2 -0.02,0.41 -0.03,0.61 c -4.27,2.96 -5.52,6.88 -3.77,11.75 c 1.46,1.88 2.41,0.75 0.44,2.42 c 0.36,1.02 0.76,2.03 1.2,3.03 c -0.42,0.33 -0.85,0.65 -1.3,0.95 c 1.46,2.15 1.78,1.5 0.04,2.97 c 1.6,0.8 1.96,1.98 1.08,3.54 c 0.13,1.18 0.42,2.32 0.88,3.42 c 0.65,1.12 1.43,2.12 2.34,3.01 c -0.46,0.32 -0.89,0.67 -1.29,1.05 c 3.22,2.11 0.33,1.48 -0.24,3.81 c 0.52,0.16 1.07,0.2 1.64,0.12 c 1.16,2.23 2.17,4.53 3.01,6.89 c -0.63,0.82 -2.3,-0.27 -2.83,-0.84 c 0.39,0.99 0.8,2 1.21,3.01 c 0.67,0.55 1.17,1.21 1.5,1.99 c -0.38,0.26 -0.65,0.59 -0.81,1 c 0.6,3.31 0.94,6.65 1.01,10.02 c -0.48,1.84 -0.97,3.68 -1.45,5.52 c -1.57,5.74 -4.47,-7.99 -5.42,-2.55 c -2.13,-3.44 -4.25,-6.89 -6.34,-10.36 c 0.4,-0.83 0.59,-1.7 0.58,-2.61 c -0.88,-2.84 -1.62,-5.72 -2.21,-8.64 c 0.07,-0.81 0.35,-1.56 0.83,-2.22 c -1.92,-1.38 -2.38,-4.59 -3.32,-6.65 c -1.66,-5.78 -3.3,-11.57 -4.91,-17.35 c 0.26,-0.44 0.59,-0.83 0.98,-1.17 c -1.49,-4.54 -0.31,-8.23 3.52,-11.05 c 0.87,-0.24 1.73,-0.51 2.57,-0.8 c -0.79,-0.82 -2.5,-0.6 -2.73,-1.87 c 3.66,-0.1 7.32,-0.27 10.98,-0.5 Z"/></g>
<g><path fill="#fa8018" fill-opacity="0.996" stroke="#fa8018" stroke-width="0.5" stroke-opacity="0.996" d="M 323.97,406.9 c 2,-0.04 4,-0.1 6.01,-0.15 c 0.23,1.27 1.94,1.05 2.73,1.87 c -0.84,0.29 -1.7,0.56 -2.57,0.8 c -3.83,2.82 -5.01,6.51 -3.52,11.05 c -0.39,0.34 -0.72,0.73 -0.98,1.17 c 1.61,5.78 3.25,11.57 4.91,17.35 c 0.94,2.06 1.4,5.27 3.32,6.65 c -0.48,0.66 -0.76,1.41 -0.83,2.22 c 0.59,2.92 1.33,5.8 2.21,8.64 c 0.01,0.91 -0.18,1.78 -0.58,2.61 c -3.51,-5.58 -6.81,-11.3 -9.9,-17.13 c 0.66,-2.03 -0.69,-5.26 -2.32,-6.53 c -1.04,-3.44 -2.1,-6.88 -3.21,-10.32 c -1.52,-5.48 -2.75,-12.13 2.8,-15.81 c 1.98,-0.78 3.49,0.07 1.93,-2.42 Z M 452.76,498.37 c 1.61,0.91 1.92,2.15 0.92,3.73 c -1.3,1 -2.74,1.58 -4.34,1.75 c 0.73,0.28 1.49,0.39 2.29,0.33 c 2.14,-0.47 2.28,-2.2 3,1.33 c -0.69,0.45 -1.45,0.79 -2.27,1.02 c 2.22,1.66 4.61,1.93 7.17,0.82 c 0.92,0.65 -0.43,3.3 0.09,4.57 c 0.27,1.17 0.52,2.34 0.76,3.5 c 0.89,0.34 1.72,0.78 2.5,1.33 c -0.13,0.85 -0.63,1.44 -1.47,1.76 c 2.3,2.06 2.2,0.87 4.32,-0.29 c 0.39,-0.1 0.71,0 0.95,0.29 c -0.95,1.57 -2.11,2.97 -3.46,4.21 c -0.15,0.45 -0.02,0.79 0.4,1.02 c 0.78,-0.15 1.52,-0.18 2.24,-0.09 c -0.79,3.23 0.08,2.19 2.7,1.39 c 0.41,-0.02 0.75,0.12 1.01,0.41 c -0.87,0.64 -1.72,1.33 -2.54,2.06 c -0.92,0.3 -1.8,0.64 -2.66,1.03 c 1.08,0.43 2.19,0.84 3.32,1.21 c 0.85,0.31 1.67,-0.91 2.18,-0.02 c -1.08,1.84 -2.31,3.61 -3.7,5.28 c -0.52,0.5 -1.04,1.01 -1.56,1.51 c -0.89,1.69 -1.71,3.39 -2.44,5.11 c 1.54,2.9 1.29,4.8 5.05,6.38 c 0.37,0.51 0.3,0.98 -0.21,1.39 c -2,-1.71 -3.99,-3.44 -5.96,-5.2 c -4.75,-4.89 -8.97,-10.2 -12.68,-15.92 c 0.67,-0.34 0.81,-0.86 0.44,-1.57 c -2.58,-4.41 -5.25,-8.76 -8,-13.07 c -0.54,-1.52 -1.21,-2.98 -2.03,-4.36 c 4.56,-3.77 9.22,-7.4 13.98,-10.91 Z"/></g>
<g><path fill="#fc971d" fill-opacity="0.996" stroke="#fc971d" stroke-width="0.5" stroke-opacity="0.996" d="M 340.96,406.25 c 2.66,-0.09 5.32,-0.14 7.98,-0.14 c 0.35,0.61 0.89,0.9 1.6,0.9 c 2.37,-0.03 4.72,0.1 7.05,0.39 c -2.77,0.55 -5.5,1.25 -8.2,2.11 c 0.74,2.73 -3.5,1.26 0.23,4.02 c -1.07,0.42 -2.18,0.75 -3.32,0.98 c 1.14,0.32 2.27,0.65 3.38,0.99 c -1.22,2.89 -0.37,2.69 0.96,4.96 c -1,0.43 -1.77,1.1 -2.31,2.01 c 0.73,0.43 1.24,1.02 1.53,1.79 c -0.27,1.79 -0.55,3.57 -0.85,5.34 c 0.33,0.8 0.84,1.44 1.55,1.95 c -0.05,0.99 0.2,1.91 0.73,2.74 c 0.69,0.85 1.47,1.59 2.35,2.23 c -0.07,0.63 -0.06,1.26 0.04,1.89 c -0.39,0.75 -0.84,1.46 -1.35,2.14 c 0.4,1.04 1.12,1.3 2.14,0.79 c 1.41,1.69 -1.3,1.51 -2.1,2.13 c 1.18,0.29 2.3,0.72 3.37,1.26 c 0.76,1.9 -1.71,-0.55 -1.6,1.54 c 1.04,1.29 2.25,2.41 3.63,3.36 c -0.08,0.9 -0.27,1.78 -0.54,2.65 c 1.37,1.85 2.08,3.92 2.14,6.21 c 0.61,0.79 1.35,1.46 2.2,2 c -2.12,1.33 -1.19,1.63 0.75,2.63 c 1.51,1.6 0.18,2.62 -1.09,3.59 c -0.28,2.81 2.68,-0.99 2.69,1.8 c -0.89,3.21 -0.7,2.03 1.7,3.97 c -1.46,1.89 -1.42,1.53 -0.79,3.79 c -0.56,0.11 -1.09,0.27 -1.6,0.5 c -0.24,3.29 -0.53,2.8 -2.98,3.9 c -0.19,1.99 4.47,1.7 0.13,4.83 c 0.72,0.41 1.23,1 1.53,1.75 c -0.39,0.9 -0.53,1.83 -0.43,2.79 c -0.22,0.37 -0.53,0.59 -0.95,0.67 c -0.68,-1.1 -1.22,-4.5 -3.28,-1.96 c -0.08,0.67 -0.31,1.27 -0.69,1.81 c -1.77,-2.01 -3.45,-4.09 -5.03,-6.23 c -0.32,0.24 -0.51,0.56 -0.55,0.97 c -3.35,-5.26 -6.67,-10.54 -9.97,-15.83 c 0.95,-5.44 3.85,8.29 5.42,2.55 c 0.48,-1.84 0.97,-3.68 1.45,-5.52 c -0.07,-3.37 -0.41,-6.71 -1.01,-10.02 c 0.16,-0.41 0.43,-0.74 0.81,-1 c -0.33,-0.78 -0.83,-1.44 -1.5,-1.99 c -0.41,-1.01 -0.82,-2.02 -1.21,-3.01 c 0.53,0.57 2.2,1.66 2.83,0.84 c -0.84,-2.36 -1.85,-4.66 -3.01,-6.89 c -0.57,0.08 -1.12,0.04 -1.64,-0.12 c 0.57,-2.33 3.46,-1.7 0.24,-3.81 c 0.4,-0.38 0.83,-0.73 1.29,-1.05 c -0.91,-0.89 -1.69,-1.89 -2.34,-3.01 c -0.46,-1.1 -0.75,-2.24 -0.88,-3.42 c 0.88,-1.56 0.52,-2.74 -1.08,-3.54 c 1.74,-1.47 1.42,-0.82 -0.04,-2.97 c 0.45,-0.3 0.88,-0.62 1.3,-0.95 c -0.44,-1 -0.84,-2.01 -1.2,-3.03 c 1.97,-1.67 1.02,-0.54 -0.44,-2.42 c -1.75,-4.87 -0.5,-8.79 3.77,-11.75 c 0.01,-0.2 0.02,-0.41 0.03,-0.61 c -1.04,-0.33 -1.99,-0.83 -2.84,-1.5 Z"/></g>
<g><path fill="#feaa16" fill-opacity="0.996" stroke="#feaa16" stroke-width="0.5" stroke-opacity="0.996" d="M 461.05,544.2 c 1.97,1.76 3.96,3.49 5.96,5.2 c 3.18,3.38 4.88,2.65 8.82,3.97 c -0.86,2.02 -4,3.96 -5.53,5.55 c -0.4,0.81 -0.16,1.27 0.72,1.39 c -0.45,0.41 -0.91,0.81 -1.38,1.21 c -0.46,0.37 -0.91,0.75 -1.37,1.12 c -0.77,-0.31 -1.51,-0.28 -2.24,0.1 c -1.23,0.75 -7.99,6.37 -8.96,6.03 c -1.2,-0.69 -2.46,-1.24 -3.79,-1.67 c -1.69,-0.25 -3.34,-0.46 -4.97,-0.62 c 1.76,-1.12 2.2,-2.39 3.32,-4.01 c -0.23,-0.3 -0.54,-0.38 -0.91,-0.26 c -2.24,1.05 -2.3,0.95 -2.23,-1.22 c -0.77,-0.48 -1.5,-0.99 -2.19,-1.55 c 0.48,-0.96 1.22,-1.23 2.25,-0.83 c 4.28,-1.03 -6.26,-3.03 2.05,-6.16 c -0.61,-0.48 -1.3,-0.82 -2.07,-1 c -3.25,1.17 -2.21,-0.59 -1,-2.34 c 0.82,-0.79 1.52,-1.66 2.12,-2.59 c -0.45,-0.32 -0.86,-0.67 -1.24,-1.05 c 1.21,-1.64 2.46,-3.25 3.77,-4.84 c 0.62,-0.65 1.34,-1.14 2.16,-1.46 c 1.72,1.89 3.52,3.71 5.39,5.45 c 0.6,0.34 1.04,0.21 1.32,-0.42 Z"/></g>
<g><path fill="#ffb02c" fill-opacity="0.996" stroke="#ffb02c" stroke-width="0.5" stroke-opacity="0.996" d="M 699.87,370.68 c 4.18,-0.16 5.64,3.64 2.08,5.78 c -0.64,0.09 -1.29,0.11 -1.94,0.06 c -0.91,1.38 -1.66,2.85 -2.27,4.41 c -0.35,1.82 0.45,1.37 -1.34,2.51 c 1.61,1.07 3.32,1.24 5.11,0.5 c 0.75,0.05 1.26,0.42 1.54,1.11 c -5.72,2.54 -11.38,5.23 -16.98,8.06 c -0.27,-0.59 -0.71,-0.8 -1.33,-0.62 c -4.06,1.75 -8.08,3.55 -12.05,5.39 c -0.78,-1.55 -0.5,-2.87 0.85,-3.95 c 0.75,-0.37 1.5,-0.57 2.25,-0.6 c 0.2,-1.6 -2.28,-1.15 -1.17,-2.25 c 1,-0.16 1.99,-0.34 2.96,-0.54 c -1.07,-1.83 -0.81,-3.43 0.77,-4.8 c 0.48,-0.15 0.94,-0.31 1.38,-0.48 c -0.64,-2.51 -0.19,-1.98 1.92,-2.76 c -1.87,-1.98 -1.52,-1.96 0.02,-4.07 c -1.73,-0.27 -3.31,-0.93 -4.73,-1.98 c 7.61,-2.05 15.26,-3.97 22.93,-5.77 Z"/></g>
<g><path fill="#fea623" fill-opacity="0.992" stroke="#fea623" stroke-width="0.5" stroke-opacity="0.992" d="M 720.85,366.54 c 2.78,0.58 1.6,1.09 1.17,2.99 c 0.32,0.92 0.59,1.84 0.82,2.77 c -0.93,0.99 -1.76,2.06 -2.47,3.22 c 1.75,1.68 3.34,-2.11 5.72,0.07 c -0.75,0.29 -1.39,0.75 -1.91,1.36 c -7.12,2.48 -14.17,5.18 -21.13,8.1 c -0.28,-0.69 -0.79,-1.06 -1.54,-1.11 c -1.79,0.74 -3.5,0.57 -5.11,-0.5 c 1.79,-1.14 0.99,-0.69 1.34,-2.51 c 0.61,-1.56 1.36,-3.03 2.27,-4.41 c 0.65,0.05 1.3,0.03 1.94,-0.06 c 3.56,-2.14 2.1,-5.94 -2.08,-5.78 c 6.95,-1.6 13.95,-2.98 20.98,-4.14 Z"/></g>
<g><path fill="#fd9a1c" fill-opacity="0.988" stroke="#fd9a1c" stroke-width="0.5" stroke-opacity="0.988" d="M 753.83,362.42 c -3.92,8.55 -11.25,7.54 -19.06,10.89 c -2.84,1.01 -5.73,1.77 -8.68,2.28 c -2.38,-2.18 -3.97,1.61 -5.72,-0.07 c 0.71,-1.16 1.54,-2.23 2.47,-3.22 c -0.23,-0.93 -0.5,-1.85 -0.82,-2.77 c 0.43,-1.9 1.61,-2.41 -1.17,-2.99 c 10.88,-1.87 22.01,-3.14 32.98,-4.12 Z"/></g>
<g><path fill="#feb122" fill-opacity="0.996" stroke="#feb122" stroke-width="0.5" stroke-opacity="0.996" d="M 379.04,406.09 c 3.48,0.4 5.65,0.56 7.4,3.91 c 14.58,31.56 30.26,62.56 47.03,93.01 c 0.9,1.32 3.18,6.29 4.52,6.7 c 0.37,1.48 0.87,2.9 1.52,4.27 c 2.88,4.82 5.83,9.58 8.86,14.3 c 3.71,5.72 7.93,11.03 12.68,15.92 c -0.28,0.63 -0.72,0.76 -1.32,0.42 c -1.87,-1.74 -3.67,-3.56 -5.39,-5.45 c -0.82,0.32 -1.54,0.81 -2.16,1.46 c -1.31,1.59 -2.56,3.2 -3.77,4.84 c 0.38,0.38 0.79,0.73 1.24,1.05 c -0.6,0.93 -1.3,1.8 -2.12,2.59 c -1.21,1.75 -2.25,3.51 1,2.34 c 0.77,0.18 1.46,0.52 2.07,1 c -8.31,3.13 2.23,5.13 -2.05,6.16 c -1.03,-0.4 -1.77,-0.13 -2.25,0.83 c 0.69,0.56 1.42,1.07 2.19,1.55 c -0.07,2.17 -0.01,2.27 2.23,1.22 c 0.37,-0.12 0.68,-0.04 0.91,0.26 c -1.12,1.62 -1.56,2.89 -3.32,4.01 c 1.63,0.16 3.28,0.37 4.97,0.62 c 1.33,0.43 2.59,0.98 3.79,1.67 c -2.47,2.64 -13.9,8.22 -17.8,4.47 c -2.28,-0.34 -2.88,-0.39 -4.74,-1.82 c -1.82,1 -3.24,0.61 -4.27,-1.14 c -0.77,0.14 -1.55,0.2 -2.32,0.16 c -2.46,-2.38 -4.06,-2.29 -7.26,-2.6 c -2.71,-2.24 -5.14,-1.83 -4.86,-6.17 c -0.34,-1.05 -1.05,-1.51 -2.13,-1.41 c -1.92,2.09 -1.51,2.5 -2.35,-0.12 c -2.24,-1.87 -2.27,1.38 -3.6,-0.43 c -0.16,-0.79 -0.24,-1.59 -0.25,-2.39 c -1.3,1.99 -0.75,1.31 -2.29,-0.22 c -0.87,-0.39 -1.37,-0.13 -1.51,0.77 c -1.02,-1.03 -2.03,-2.07 -3.01,-3.14 c -5.95,-6.65 -11.62,-13.54 -17.01,-20.66 c 0.19,-0.74 0.63,-0.99 1.33,-0.72 c 1.5,1.79 3.01,3.54 4.54,5.26 c 1.39,-0.97 -1.63,-2.38 0.71,-2.36 c 0.43,0.15 0.87,0.27 1.31,0.38 c 0.3,-0.86 0.7,-1.67 1.2,-2.44 c 1.73,-0.83 -0.52,3.11 2.06,1.11 c 0.84,-1.5 1.44,-3.1 1.8,-4.79 c -0.47,-0.87 -1.71,-0.62 -1.48,-1.81 c 1.5,-0.44 3.01,-0.93 4.53,-1.45 c 0.61,0.04 1.21,0.15 1.8,0.33 c 1.38,-1.34 0.73,-1.63 2,0.05 c 0.71,-1.07 1.45,-2.12 2.22,-3.14 c -0.78,-2.25 -2.07,-0.38 -3.22,0.18 c -1.09,-0.68 0.48,-1.62 0.05,-2.64 c -0.89,-1.07 -1.95,-1.91 -3.19,-2.53 c 1.09,-0.35 2.19,-0.69 3.3,-1.03 c -0.3,-0.57 -0.42,-1.18 -0.36,-1.81 c 2.27,-1.41 3.72,-0.86 0.04,-2.15 c 0.72,-0.42 1.49,-0.75 2.31,-0.99 c -0.52,-0.41 -1.08,-0.76 -1.67,-1.07 c -0.89,-0.77 -0.79,-1.18 0.33,-1.26 c 0.94,0.74 1.46,0.57 1.57,-0.5 c -1.57,-2.92 -2.89,-1.47 0.77,-3.14 c -1.41,-0.9 -2.88,-1.66 -4.43,-2.28 c -0.04,-0.62 0.08,-1.21 0.36,-1.78 c -0.32,-0.7 -0.71,-1.37 -1.16,-2 c 0.13,-0.5 0.16,-1 0.09,-1.51 c -0.68,-0.51 -1.38,-0.99 -2.1,-1.43 c 1.57,-1.92 2.97,-3.95 4.22,-6.11 c -1.39,-1.71 -3.06,1.41 -4.43,-0.07 c 0.15,-0.77 0.2,-1.51 0.15,-2.22 c -1.34,-0.93 -4.07,-1.2 -3.11,-3.5 c 3.47,-6.2 0.09,-2.96 -0.82,-7.17 c 0.67,-0.89 1.26,-1.84 1.77,-2.84 c 0.79,-0.46 1.62,-0.83 2.49,-1.13 c -0.95,-1.15 -2.94,-0.17 -4.11,0.08 c -0.97,-0.2 -1.94,-0.47 -2.88,-0.79 c -1.53,-0.97 0.42,-1.69 0.99,-2.34 c -0.52,-1.96 -2.98,-0.89 -4.31,-1.93 c 0.81,-0.32 1.59,-0.68 2.36,-1.06 c -0.09,-0.42 -0.31,-0.75 -0.67,-0.99 c -0.91,-0.25 -1.77,-0.56 -2.61,-0.93 c 0.09,-0.96 0.02,-1.9 -0.2,-2.84 c 0.43,-0.41 0.89,-0.8 1.37,-1.17 c -0.73,-0.33 -1.2,-0.87 -1.42,-1.62 c 2.82,-0.18 2.86,0.4 3.41,2.77 c 0.3,-1.39 0.65,-2.78 1.03,-4.18 c -0.51,-0.28 -1.02,-0.57 -1.53,-0.87 c -1.33,-3.24 -2.51,-6.54 -3.55,-9.89 c -1.15,-1.72 -1.83,-0.71 0.15,-2.31 c -2.61,-0.87 -3.75,-2.68 -3.42,-5.43 c 0.19,-1.16 0.6,-2.16 1.23,-2.99 c -0.56,-0.51 -1.17,-0.92 -1.85,-1.24 c -0.07,-0.57 -0.18,-1.12 -0.35,-1.64 c -0.69,-0.12 -1.35,-0.32 -1.98,-0.59 c 0.79,-0.34 1.58,-0.7 2.34,-1.09 c -1.44,-1.18 -2.38,-2.69 -2.81,-4.53 c -0.44,-1.61 -0.16,-3.06 0.84,-4.34 c 0.01,-0.45 0.06,-0.9 0.14,-1.34 c -0.75,0.82 -1.54,1.61 -2.36,2.35 c -0.7,-1.75 -0.46,-3.39 0.71,-4.92 c 0.76,-0.03 1.53,0.06 2.33,0.27 c 0.46,0.01 0.85,-0.16 1.15,-0.49 c -0.36,-1.34 -2.77,-1.47 -2.49,-2.77 c 0.83,-0.07 1.67,-0.2 2.52,-0.39 c 1.42,-0.67 1.89,-2.22 -0.13,-2.4 c -1.07,0.04 -2.1,0.28 -3.09,0.7 c -0.28,-0.26 -0.4,-0.59 -0.36,-0.99 c -0.31,-3.55 3.48,-5.42 5.61,-2.82 c 0.38,0.18 0.69,0.11 0.93,-0.21 c -1.09,-3.35 -3.39,-4.95 -6.9,-4.78 c -0.42,-0.06 -0.7,-0.28 -0.85,-0.66 c 0.41,-0.32 0.79,-0.67 1.15,-1.05 Z"/></g>
<g><path fill="#fa7313" fill-opacity="0.996" stroke="#fa7313" stroke-width="0.5" stroke-opacity="0.996" d="M 310.02,406.97 c 4.65,-0.03 9.3,-0.05 13.95,-0.07 c 1.56,2.49 0.05,1.64 -1.93,2.42 c -5.55,3.68 -4.32,10.33 -2.8,15.81 c 1.11,3.44 2.17,6.88 3.21,10.32 c 1.63,1.27 2.98,4.5 2.32,6.53 c -1.58,-1.75 -3,-3.61 -4.24,-5.58 c -0.32,0.45 -0.66,0.87 -1.03,1.25 c -2.16,-4.28 -4.19,-8.63 -6.07,-13.05 c -2.42,-5.76 -4.51,-11.28 -3.41,-17.63 Z"/></g>
<g><path fill="#f6680d" fill-opacity="0.996" d="M 724.18,376.95 c 2.07,0.71 -2.92,2.04 -3.22,2.53 c -4.64,1.73 -9.3,3.38 -14,4.96 c -6.93,3.27 -13.84,6.58 -20.73,9.94 c -16.61,8.88 -33.57,17.88 -49.07,28.51 c -0.88,0.2 -1.67,0 -2.38,-0.61 c 5,-3.25 10.05,-6.4 15.17,-9.45 c 11.86,-6.91 23.9,-13.49 36.12,-19.72 c 5.6,-2.83 11.26,-5.52 16.98,-8.06 c 6.96,-2.92 14.01,-5.62 21.13,-8.1 Z M 634.78,422.28 c 0.81,2.75 -0.95,2.4 -2.58,3.41 c -5.44,4.2 -12.15,7.72 -17.22,12.17 c -1.97,1.22 -3.93,2.48 -5.88,3.75 c -0.87,0.41 -1.73,0.39 -2.6,-0.05 c 2.13,-1.59 4.28,-3.14 6.47,-4.63 c 1.18,-0.8 2.35,-1.61 3.51,-2.43 c 4.78,-3.48 9.69,-6.77 14.71,-9.9 c 1.2,-0.77 2.4,-1.54 3.59,-2.32 Z"/></g>
<g><path fill="#f87c15" fill-opacity="0.996" stroke="#f87c15" stroke-width="0.5" stroke-opacity="0.996" d="M 601.23,486.26 c -0.37,-0.13 -0.64,-0.37 -0.79,-0.73 c 0.48,-2.54 -1.37,-1.51 -1.92,0.04 c -1.95,-1.69 -2.04,-3.48 -0.27,-5.35 c 0.72,0.03 0.98,0.92 1.57,0.15 c 1.51,-3.14 0.69,-5.45 -2.45,-6.95 c 0.52,-0.19 1.02,-0.41 1.51,-0.68 c -0.38,-3.12 0.33,-5.95 2.12,-8.51 c 0.75,-0.07 1.28,0.83 1.85,0.03 c -0.59,-1.07 -1.22,-2.12 -1.88,-3.16 c -0.59,-3.61 1.61,-5.62 4.7,-6.92 c 0.34,-0.57 0.64,-1.16 0.89,-1.77 c 0.21,1.15 0.53,2.26 0.97,3.31 c 0.37,-0.12 0.58,-0.38 0.62,-0.78 c 0.06,-5.53 4.94,-11.02 7.68,-15.55 c 0.1,-0.72 -0.19,-1.23 -0.85,-1.53 c 5.07,-4.45 11.78,-7.97 17.22,-12.17 c 1.63,-1.01 3.39,-0.66 2.58,-3.41 c 0.71,0.61 1.5,0.81 2.38,0.61 c 15.5,-10.63 32.46,-19.63 49.07,-28.51 c 6.89,-3.36 13.8,-6.67 20.73,-9.94 c 4.7,-1.58 9.36,-3.23 14,-4.96 c 0.3,-0.49 5.29,-1.82 3.22,-2.53 c 0.52,-0.61 1.16,-1.07 1.91,-1.36 c 2.95,-0.51 5.84,-1.27 8.68,-2.28 c 7.81,-3.35 15.14,-2.34 19.06,-10.89 c 2.06,-0.37 4.12,-0.54 6.21,-0.5 c 3.37,0.15 6.74,0.1 10.1,-0.14 c 10,-1.42 20.43,-0.4 30.53,-0.96 c 0.53,-0.08 0.92,0.1 1.19,0.52 c -11.6,4.9 -23.13,10 -34.6,15.3 c -59.73,28.07 -116.39,66.18 -166.03,109.62 Z"/></g>
<g><path fill="#e23105" fill-opacity="0.996" d="M 512.99,519.87 c 1.46,-0.35 1.11,1.27 0.26,1.87 c -4.71,4.57 -9.48,9.07 -14.32,13.5 c -0.68,0.45 -1.42,0.6 -2.22,0.43 c 5.5,-5.19 10.92,-10.46 16.28,-15.8 Z M 496.71,535.67 c 0.18,0.76 0.01,1.44 -0.5,2.03 c -6.27,6.06 -12.49,12.18 -18.65,18.36 c -0.29,0.28 -0.4,0.62 -0.33,1.02 c -1.66,-0.06 -4.49,5.86 -7.59,4.44 c 0.47,-0.4 0.93,-0.8 1.38,-1.21 c 2.66,-2.53 5.31,-5.06 7.96,-7.59 c 6,-5.5 11.39,-11.98 17.73,-17.05 Z M 468.27,562.64 c 0.46,-0.37 0.91,-0.75 1.37,-1.12 c 0.37,0.83 0.27,1.59 -0.3,2.29 c -4.51,3.65 -9.24,6.98 -14.2,9.98 c -1.1,0.55 -2.19,0.52 -3.26,-0.08 c 5.85,-3.11 11.31,-6.8 16.39,-11.07 Z"/></g>
<g><path fill="#fed13a" fill-opacity="0.996" d="M 612.97,436.93 c -2.19,1.49 -4.34,3.04 -6.47,4.63 c -1.24,0.92 -2.49,1.84 -3.74,2.74 c -8.09,5.87 -16.09,11.86 -24,17.97 c -1.7,1.3 -3.38,2.63 -5.04,3.98 c -4.17,3.44 -8.4,6.81 -12.68,10.11 c -0.33,-2.17 3.5,-3.38 3.98,-5.34 c 0.64,-0.01 1.2,-0.24 1.68,-0.67 c 5.07,-4.39 10.3,-8.57 15.69,-12.55 c 0.97,-0.81 1.86,-1.69 2.68,-2.64 c 1.85,-0.99 3.62,-2.12 5.3,-3.41 c 6.8,-5.18 13.65,-10.29 20.54,-15.32 c 0.67,-0.7 2.42,-0.99 2.06,0.5 Z"/></g>
<g><path fill="#f0650c" fill-opacity="0.996" stroke="#f0650c" stroke-width="0.5" stroke-opacity="0.996" d="M 573.72,466.25 c 0.33,0.6 0.37,1.22 0.12,1.86 c -2.37,2.31 -4.86,4.46 -7.45,6.47 c 0.38,0.32 0.77,0.63 1.16,0.94 c 0.02,1.32 0.19,2.64 0.51,3.96 c 0.08,0.77 -0.08,1.46 -0.48,2.09 c -0.7,-1.49 -1.43,-1.53 -2.2,-0.14 c 1.4,3.25 1.74,2.33 -0.19,5.26 c -0.08,1.32 -0.36,2.59 -0.84,3.82 c 1.47,2.29 -0.45,2.98 0.29,5.01 c -1.42,0.78 -1.97,0.59 -3.16,2 c -0.32,-0.72 -0.66,-1.44 -1.03,-2.14 c -2.72,0.62 -2.85,1.65 -0.39,3.08 c 0.84,0.39 1.69,0.73 2.55,1.01 c -1.08,0.69 -2.17,1.37 -3.25,2.06 c 0.73,1.57 0.43,2.93 -0.91,4.08 c -0.36,-0.37 -0.7,-0.75 -1.03,-1.15 c -2.2,0.97 -2.53,2.36 -0.99,4.17 c 1.27,-2.71 4.62,0 3.06,2.01 c -1.37,-0.74 -2.75,-0.79 -4.12,-0.17 c 1.83,1.16 2.32,2.77 1.47,4.84 c -0.38,0.3 -0.81,0.34 -1.29,0.13 c -1.07,1.64 -1.51,1.37 -3.15,1.99 c 1.29,0.94 2.7,1.65 4.23,2.14 c -1.08,0.3 -2.17,0.59 -3.28,0.85 c 2.75,1.66 -0.07,1.41 1.13,3.25 c 1.01,-0.1 4.46,-2.11 5.17,-1.18 c -1.58,1.59 -3.12,3.22 -4.61,4.92 c -1.01,0.6 -1.82,-0.65 -2.43,0.61 c -0.28,1.41 -0.4,2.81 -0.37,4.23 c -17.31,17.14 -34.13,35.57 -49.98,54.06 c -1.24,-1.76 1.42,-4.24 2.07,-5.89 c -0.27,-0.33 -0.57,-0.65 -0.9,-0.96 c 0.86,-0.38 1.79,-0.57 2.77,-0.58 c 1.62,-1.39 1.71,-2.87 0.26,-4.45 c -1.01,0.18 -1.85,0.66 -2.51,1.45 c 0.84,-1.78 1.5,-3.65 1.98,-5.59 c -0.23,-0.48 -0.5,-0.96 -0.78,-1.45 c 1.03,-0.74 2.18,-1.17 3.46,-1.28 c -1.6,-1.22 -3.33,-2.2 -4.25,-4.06 c 0.86,-0.21 1.74,-0.21 2.64,-0.02 c 1.59,-1.04 0.05,-1.29 -0.65,-2.01 c 0.76,-1.1 1.39,-2.27 1.9,-3.52 c 0.09,-0.83 0.21,-1.66 0.34,-2.48 c -2.18,-1.63 -0.64,-0.8 0.9,-2.5 c 0.21,-0.96 0.25,-1.9 0.12,-2.81 c 0.67,0.01 1.31,0.16 1.93,0.44 c 1.22,-1.01 2.59,-1.72 4.12,-2.12 c -1.94,-2.38 -1.34,-2.33 -0.15,-5.15 c 0.31,0.65 0.54,1.32 0.68,2.03 c 0.63,1.2 1.85,0.43 1.23,-0.9 c 0.84,-0.29 1.66,-0.66 2.43,-1.11 c 0.36,-1.92 -2.89,-2.61 -1.42,-3.98 c 1.42,0.87 2.49,0.59 3.22,-0.85 c -0.82,-0.28 -1.6,-0.62 -2.35,-1.02 c 1.54,-0.45 2.98,-1.12 4.33,-2 c 0.22,-1.62 0.43,-3.26 0.64,-4.91 c -0.11,-0.76 -0.42,-1.44 -0.91,-2.04 c 1.1,-0.34 2.21,-0.68 3.34,-1.03 c 0.52,-0.33 0.94,-0.76 1.28,-1.27 c 0.11,-1.35 0.33,-2.68 0.65,-3.99 c -0.09,-0.57 -0.17,-1.13 -0.24,-1.7 c 1.04,-0.45 2.12,-0.82 3.24,-1.1 c -0.15,-0.48 -0.11,-0.95 0.12,-1.39 c 0.82,-1.79 1.63,-3.58 2.42,-5.38 c 0.41,-0.26 0.86,-0.28 1.36,-0.04 c 0.97,-0.2 1.29,-0.76 0.95,-1.67 c -2.15,-2.07 -0.7,-1.58 1.14,-2.53 c -1.78,-0.8 -2.49,-2.96 -1.11,-4.44 c 1.07,0 2.08,-0.17 3.05,-0.52 c -0.13,-0.66 -0.12,-1.31 0.02,-1.97 c -2.14,-3.88 2.55,0.09 0.97,-3.75 c 2.83,-3.45 5.88,-6.69 9.16,-9.71 c 0.28,-0.55 0.3,-1.11 0.07,-1.69 c 3.8,-3.29 7.55,-6.63 11.26,-10.01 c 4.28,-3.3 8.51,-6.67 12.68,-10.11 Z"/></g>
<g><path fill="#f36f11" fill-opacity="0.996" stroke="#f36f11" stroke-width="0.5" stroke-opacity="0.996" d="M 614.98,437.86 c 0.66,0.3 0.95,0.81 0.85,1.53 c -2.74,4.53 -7.62,10.02 -7.68,15.55 c -0.04,0.4 -0.25,0.66 -0.62,0.78 c -0.44,-1.05 -0.76,-2.16 -0.97,-3.31 c -0.25,0.61 -0.55,1.2 -0.89,1.77 c -3.09,1.3 -5.29,3.31 -4.7,6.92 c 0.66,1.04 1.29,2.09 1.88,3.16 c -0.57,0.8 -1.1,-0.1 -1.85,-0.03 c -1.79,2.56 -2.5,5.39 -2.12,8.51 c -0.49,0.27 -0.99,0.49 -1.51,0.68 c 3.14,1.5 3.96,3.81 2.45,6.95 c -0.59,0.77 -0.85,-0.12 -1.57,-0.15 c -1.77,1.87 -1.68,3.66 0.27,5.35 c 0.55,-1.55 2.4,-2.58 1.92,-0.04 c 0.15,0.36 0.42,0.6 0.79,0.73 c -16.86,14.72 -33.4,29.91 -48.99,45.99 c -0.03,-1.42 0.09,-2.82 0.37,-4.23 c 0.61,-1.26 1.42,-0.01 2.43,-0.61 c 1.49,-1.7 3.03,-3.33 4.61,-4.92 c -0.71,-0.93 -4.16,1.08 -5.17,1.18 c -1.2,-1.84 1.62,-1.59 -1.13,-3.25 c 1.11,-0.26 2.2,-0.55 3.28,-0.85 c -1.53,-0.49 -2.94,-1.2 -4.23,-2.14 c 1.64,-0.62 2.08,-0.35 3.15,-1.99 c 0.48,0.21 0.91,0.17 1.29,-0.13 c 0.85,-2.07 0.36,-3.68 -1.47,-4.84 c 1.37,-0.62 2.75,-0.57 4.12,0.17 c 1.56,-2.01 -1.79,-4.72 -3.06,-2.01 c -1.54,-1.81 -1.21,-3.2 0.99,-4.17 c 0.33,0.4 0.67,0.78 1.03,1.15 c 1.34,-1.15 1.64,-2.51 0.91,-4.08 c 1.08,-0.69 2.17,-1.37 3.25,-2.06 c -0.86,-0.28 -1.71,-0.62 -2.55,-1.01 c -2.46,-1.43 -2.33,-2.46 0.39,-3.08 c 0.37,0.7 0.71,1.42 1.03,2.14 c 1.19,-1.41 1.74,-1.22 3.16,-2 c -0.74,-2.03 1.18,-2.72 -0.29,-5.01 c 0.48,-1.23 0.76,-2.5 0.84,-3.82 c 1.93,-2.93 1.59,-2.01 0.19,-5.26 c 0.77,-1.39 1.5,-1.35 2.2,0.14 c 0.4,-0.63 0.56,-1.32 0.48,-2.09 c -0.32,-1.32 -0.49,-2.64 -0.51,-3.96 c -0.39,-0.31 -0.78,-0.62 -1.16,-0.94 c 2.59,-2.01 5.08,-4.16 7.45,-6.47 c 0.25,-0.64 0.21,-1.26 -0.12,-1.86 c 1.66,-1.35 3.34,-2.68 5.04,-3.98 c 0.72,0.53 1.48,0.6 2.28,0.21 c 6.94,-5.4 13.93,-10.72 20.99,-15.96 c 0.74,-0.58 0.98,-1.33 0.73,-2.22 c 1.25,-0.9 2.5,-1.82 3.74,-2.74 c 0.87,0.44 1.73,0.46 2.6,0.05 c 1.95,-1.27 3.91,-2.53 5.88,-3.75 Z"/></g>
<g><path fill="#f94403" fill-opacity="0.996" d="M 365.03,507.81 c 0.56,0.3 1.08,0.64 1.57,1.03 c 5.34,8.47 10.95,16.76 16.81,24.87 c -0.51,0.16 -1.01,0.13 -1.5,-0.08 c -6,-7.46 -10.67,-15.91 -16.53,-23.48 c -0.34,-0.74 -0.45,-1.52 -0.35,-2.34 Z M 383.41,533.71 c 0.09,0.12 0.18,0.24 0.26,0.36 c 5.39,7.12 11.06,14.01 17.01,20.66 c -3.69,1.43 -6,-6.28 -8.6,-7.52 c -2.91,-3.67 -5.76,-7.38 -8.57,-11.13 c -0.31,-0.78 -0.34,-1.57 -0.1,-2.37 Z"/></g>
<g><path fill="#e82f04" fill-opacity="0.996" d="M 410.48,564.51 c 11.16,10.33 24.28,17.34 39.36,10.15 c 1.57,-0.03 1.4,1.42 0.02,1.83 c -2.6,0.92 -5.21,1.79 -7.82,2.6 c -3.16,0.23 -6.31,0.2 -9.46,-0.06 c -3.41,-0.92 -6.69,-2.18 -9.84,-3.78 c -3.79,-2.4 -9.26,-5.41 -12.36,-9.18 c -0.2,-0.53 -0.17,-1.05 0.1,-1.56 Z"/></g>
<g><path fill="#fec42c" d="M 457.07,568.77 c 0.97,0.34 7.73,-5.28 8.96,-6.03 c 0.73,-0.38 1.47,-0.41 2.24,-0.1 c -5.08,4.27 -10.54,7.96 -16.39,11.07 c -0.67,0.33 -1.35,0.64 -2.04,0.95 c -15.08,7.19 -28.2,0.18 -39.36,-10.15 c -2.29,-2.19 -4.55,-4.4 -6.79,-6.64 c 0.14,-0.9 0.64,-1.16 1.51,-0.77 c 1.54,1.53 0.99,2.21 2.29,0.22 c 0.01,0.8 0.09,1.6 0.25,2.39 c 1.33,1.81 1.36,-1.44 3.6,0.43 c 0.84,2.62 0.43,2.21 2.35,0.12 c 1.08,-0.1 1.79,0.36 2.13,1.41 c -0.28,4.34 2.15,3.93 4.86,6.17 c 3.2,0.31 4.8,0.22 7.26,2.6 c 0.77,0.04 1.55,-0.02 2.32,-0.16 c 1.03,1.75 2.45,2.14 4.27,1.14 c 1.86,1.43 2.46,1.48 4.74,1.82 c 3.9,3.75 15.33,-1.83 17.8,-4.47 Z"/></g>
<g><path fill="#feda48" fill-opacity="0.996" d="M 649.95,412.83 c -5.12,3.05 -10.17,6.2 -15.17,9.45 c -1.19,0.78 -2.39,1.55 -3.59,2.32 c -0.11,-0.84 0.11,-1.57 0.66,-2.19 c 4.75,-2.93 9.46,-5.92 14.14,-8.97 c 0.43,-0.28 4.68,-2.74 3.96,-0.61 Z M 631.19,424.6 c -5.02,3.13 -9.93,6.42 -14.71,9.9 c -0.45,-0.83 -0.33,-1.54 0.36,-2.14 c 4.03,-2.64 8.05,-5.31 12.06,-7.98 c 0.79,-0.36 1.56,-0.29 2.29,0.22 Z"/></g>
<g><path fill="#f15007" fill-opacity="0.996" d="M 602.76,444.3 c 0.25,0.89 0.01,1.64 -0.73,2.22 c -7.06,5.24 -14.05,10.56 -20.99,15.96 c -0.8,0.39 -1.56,0.32 -2.28,-0.21 c 7.91,-6.11 15.91,-12.1 24,-17.97 Z"/></g>
<g><path fill="#f66012" fill-opacity="0.996" d="M 437.99,509.71 c 0.27,-0.14 0.53,-0.29 0.79,-0.43 c 0.82,1.38 1.49,2.84 2.03,4.36 c 2.75,4.31 5.42,8.66 8,13.07 c 0.37,0.71 0.23,1.23 -0.44,1.57 c -3.03,-4.72 -5.98,-9.48 -8.86,-14.3 c -0.65,-1.37 -1.15,-2.79 -1.52,-4.27 Z"/></g>
<g><path fill="#e73704" fill-opacity="0.996" d="M 529.91,504.26 c 0.12,0.9 -0.15,1.68 -0.81,2.32 c -2.69,2.59 -5.4,5.18 -8.11,7.75 c -0.76,0.48 -1.56,0.58 -2.4,0.3 c 3.74,-3.49 7.51,-6.95 11.32,-10.37 Z"/></g>
<g><path fill="#fed31b" fill-opacity="0.996" d="M 478.15,551.73 c 0.28,0.33 0.55,0.66 0.83,0.99 c -2.65,2.53 -5.3,5.06 -7.96,7.59 c -0.88,-0.12 -1.12,-0.58 -0.72,-1.39 c 1.53,-1.59 4.67,-3.53 5.53,-5.55 c 0.78,-0.54 1.55,-1.09 2.32,-1.64 Z"/></g>
<g><path fill="#e08e43" fill-opacity="0.075" d="M 770.14,361.78 c -3.36,0.24 -6.73,0.29 -10.1,0.14 c 0.32,-2.09 0.09,-1.92 1.5,-0.92 c 2.56,-0.08 5.12,-0.17 7.68,-0.27 c 0.69,0.02 0.99,0.37 0.92,1.05 Z"/></g>
<g><path fill="#f1aa4f" fill-opacity="0.082" d="M 521.99,448.68 c -0.07,0.1 -0.15,0.19 -0.22,0.29 c -0.59,0.31 -1.17,0.65 -1.73,1.02 c -0.36,-2.12 0.29,-2.56 1.95,-1.31 Z"/></g>
<g><path fill="#f6b958" fill-opacity="0.059" d="M 675.96,376.73 c -0.31,0.09 -0.63,0.18 -0.94,0.28 c -0.13,-0.47 -0.01,-0.83 0.38,-1.1 c 0.42,0.1 0.61,0.37 0.56,0.82 Z M 645.19,386.59 c -0.39,0.13 -0.78,0.27 -1.17,0.41 c -0.38,-1.12 0.46,-0.86 1.17,-0.41 Z"/></g>
<g><path fill="#f8ba5e" fill-opacity="0.035" d="M 578.43,415.44 c -0.44,0.23 -0.88,0.47 -1.32,0.71 c 0.3,-0.5 0.74,-0.74 1.32,-0.71 Z"/></g>
<g><path fill="#f6b85b" fill-opacity="0.071" d="M 590.22,409.5 c -0.38,0.18 -0.76,0.36 -1.14,0.54 c -0.36,-1.01 0.39,-0.9 1.14,-0.54 Z"/></g>
<g><path fill="#f7bd59" fill-opacity="0.051" d="M 594.42,407.47 c -0.44,0.21 -0.88,0.42 -1.32,0.63 c -0.33,-1.12 0.5,-0.97 1.32,-0.63 Z"/></g>
<g><path fill="#f6bc61" fill-opacity="0.071" d="M 612.2,399.53 c -0.39,0.16 -0.78,0.32 -1.17,0.49 c 0.02,-0.86 0.41,-1.02 1.17,-0.49 Z"/></g>
<g><path fill="#f9c569" fill-opacity="0.098" d="M 629.19,392.47 c -0.37,0.21 -0.76,0.38 -1.16,0.51 c -0.3,-0.98 0.51,-0.73 1.16,-0.51 Z"/></g>
<g><path fill="#f7b95b" fill-opacity="0.09" d="M 660.24,381.63 c -0.4,0.13 -0.81,0.24 -1.22,0.33 c -0.4,-1.08 0.71,-0.5 1.22,-0.33 Z"/></g>
<g><path fill="#f4ba63" fill-opacity="0.067" d="M 582.2,413.43 c -0.39,0.2 -0.77,0.4 -1.15,0.61 c 0.02,-0.81 0.41,-1.01 1.15,-0.61 Z"/></g>
</svg>
